<mxfile host="app.diagrams.net" modified="2024-04-07T14:55:36.873Z" agent="Mozilla/5.0 (Windows NT 10.0; Win64; x64) AppleWebKit/537.36 (KHTML, like Gecko) Chrome/123.0.0.0 Safari/537.36" etag="2ef54pfJbPqGyyDhGI07" version="24.2.2" type="github" pages="3">
  <diagram name="Page-1" id="5vbveP_SndiITncpWW_y">
    <mxGraphModel dx="5000" dy="3124" grid="0" gridSize="10" guides="1" tooltips="1" connect="1" arrows="1" fold="1" page="0" pageScale="1" pageWidth="827" pageHeight="1169" background="#ffffff" math="0" shadow="0">
      <root>
        <mxCell id="0" />
        <mxCell id="1" parent="0" />
        <mxCell id="Lx-jWzxAV6iJEAkAJ8vz-1" value="" style="html=1;overflow=block;blockSpacing=1;whiteSpace=wrap;fontSize=13;spacing=9;strokeColor=#0F8B8D;strokeOpacity=100;rounded=1;absoluteArcSize=1;arcSize=9;fillColor=#FAE5C7;strokeWidth=4.5;lucidId=XLnqt02hAmae;labelBackgroundColor=none;fontColor=#143642;" vertex="1" parent="1">
          <mxGeometry x="-539" y="-359" width="1053" height="493" as="geometry" />
        </mxCell>
        <mxCell id="Lx-jWzxAV6iJEAkAJ8vz-2" value="" style="html=1;overflow=block;blockSpacing=1;whiteSpace=wrap;fontSize=13;spacing=0;strokeColor=#0F8B8D;strokeOpacity=100;rounded=1;absoluteArcSize=1;arcSize=9;rotation=90;fillColor=#FAE5C7;strokeWidth=5.3;lucidId=XLnq48y0FG6D;labelBackgroundColor=none;fontColor=#143642;" vertex="1" parent="1">
          <mxGeometry x="-253" y="-109" width="481" height="2" as="geometry" />
        </mxCell>
        <mxCell id="Lx-jWzxAV6iJEAkAJ8vz-3" value="1" style="html=1;overflow=block;blockSpacing=1;whiteSpace=wrap;fontSize=88.5;fontColor=#143642;spacing=3.8;strokeOpacity=0;fillOpacity=0;rounded=1;absoluteArcSize=1;arcSize=9;fillColor=#FAE5C7;strokeWidth=2.3;lucidId=XLnqWsYr1InB;labelBackgroundColor=none;strokeColor=#0F8B8D;" vertex="1" parent="1">
          <mxGeometry x="-782" y="-206" width="972" height="187" as="geometry" />
        </mxCell>
        <mxCell id="Lx-jWzxAV6iJEAkAJ8vz-4" value="100" style="html=1;overflow=block;blockSpacing=1;whiteSpace=wrap;fontSize=80.2;fontColor=#143642;spacing=3.8;strokeOpacity=0;fillOpacity=0;rounded=1;absoluteArcSize=1;arcSize=9;fillColor=#FAE5C7;strokeWidth=2.3;lucidId=XLnqlyKxIvJS;labelBackgroundColor=none;strokeColor=#0F8B8D;" vertex="1" parent="1">
          <mxGeometry x="-782" y="190" width="972" height="170" as="geometry" />
        </mxCell>
        <mxCell id="Lx-jWzxAV6iJEAkAJ8vz-5" value="300" style="html=1;overflow=block;blockSpacing=1;whiteSpace=wrap;fontSize=81.8;fontColor=#143642;spacing=3.8;strokeOpacity=0;fillOpacity=0;rounded=1;absoluteArcSize=1;arcSize=9;fillColor=#FAE5C7;strokeWidth=2.3;lucidId=XLnqE95t_9DJ;labelBackgroundColor=none;strokeColor=#0F8B8D;" vertex="1" parent="1">
          <mxGeometry x="-215" y="-185" width="972" height="170" as="geometry" />
        </mxCell>
        <mxCell id="Lx-jWzxAV6iJEAkAJ8vz-6" value="" style="shape=singleArrow;arrowWidth=0.5;arrowSize=0.18672199170124482;whiteSpace=wrap;fontSize=13;spacing=3.8;strokeColor=#0F8B8D;strokeOpacity=100;rounded=1;absoluteArcSize=1;arcSize=9;rotation=90;fillColor=#FAE5C7;strokeWidth=5.3;html=1;labelBackgroundColor=none;fontColor=#143642;" vertex="1" parent="1">
          <mxGeometry x="-385" y="-530" width="241" height="100" as="geometry" />
        </mxCell>
        <mxCell id="Lx-jWzxAV6iJEAkAJ8vz-7" value="Data" style="html=1;overflow=block;blockSpacing=1;whiteSpace=wrap;fontSize=58.5;fontColor=#143642;spacing=3.8;strokeOpacity=0;fillOpacity=0;rounded=1;absoluteArcSize=1;arcSize=9;fillColor=#FAE5C7;strokeWidth=NaN;lucidId=dOnqGCtV52TD;labelBackgroundColor=none;strokeColor=#0F8B8D;" vertex="1" parent="1">
          <mxGeometry x="-450" y="-765" width="360" height="150" as="geometry" />
        </mxCell>
        <mxCell id="Lx-jWzxAV6iJEAkAJ8vz-8" value="" style="shape=singleArrow;arrowWidth=0.5;arrowSize=0.18672199170124482;whiteSpace=wrap;fontSize=13;spacing=3.8;strokeColor=#0F8B8D;strokeOpacity=100;rounded=1;absoluteArcSize=1;arcSize=9;rotation=90;fillColor=#FAE5C7;strokeWidth=5.3;html=1;labelBackgroundColor=none;fontColor=#143642;" vertex="1" parent="1">
          <mxGeometry x="101" y="-524" width="241" height="100" as="geometry" />
        </mxCell>
        <mxCell id="Lx-jWzxAV6iJEAkAJ8vz-9" value="Next" style="html=1;overflow=block;blockSpacing=1;whiteSpace=wrap;fontSize=58.5;fontColor=#143642;spacing=3.8;strokeOpacity=0;fillOpacity=0;rounded=1;absoluteArcSize=1;arcSize=9;fillColor=#FAE5C7;strokeWidth=NaN;lucidId=3Onqs8vMY1G~;labelBackgroundColor=none;strokeColor=#0F8B8D;" vertex="1" parent="1">
          <mxGeometry x="41" y="-770" width="360" height="150" as="geometry" />
        </mxCell>
      </root>
    </mxGraphModel>
  </diagram>
  <diagram id="qKJMxyJ_jWgyM4QbDfUt" name="main page">
    <mxGraphModel dx="2345" dy="1456" grid="0" gridSize="10" guides="1" tooltips="1" connect="1" arrows="1" fold="1" page="0" pageScale="1" pageWidth="1169" pageHeight="827" background="#000000" math="0" shadow="0">
      <root>
        <mxCell id="0" />
        <mxCell id="1" parent="0" />
        <mxCell id="Y__0JkTKTbfwVORT3gNn-97" value="" style="html=1;overflow=block;blockSpacing=1;whiteSpace=wrap;fontSize=13;spacing=9;strokeColor=#FFFFFF;strokeOpacity=100;rounded=1;absoluteArcSize=1;arcSize=9;fillColor=#182E3E;strokeWidth=2;lucidId=lonqCEzBW5gV;fontColor=#FFFFFF;labelBackgroundColor=none;" vertex="1" parent="1">
          <mxGeometry x="144" y="347" width="195" height="131" as="geometry" />
        </mxCell>
        <mxCell id="Y__0JkTKTbfwVORT3gNn-98" value="" style="html=1;overflow=block;blockSpacing=1;whiteSpace=wrap;fontSize=13;spacing=0;strokeColor=#FFFFFF;strokeOpacity=100;rounded=1;absoluteArcSize=1;arcSize=9;rotation=-270;fillColor=#182E3E;strokeWidth=2;lucidId=.pnqXwC.xLCP;fontColor=#FFFFFF;labelBackgroundColor=none;" vertex="1" parent="1">
          <mxGeometry x="178" y="413" width="128" height="2" as="geometry" />
        </mxCell>
        <mxCell id="Y__0JkTKTbfwVORT3gNn-99" value="1" style="html=1;overflow=block;blockSpacing=1;whiteSpace=wrap;fontSize=30.2;spacing=3.8;strokeOpacity=0;fillOpacity=0;rounded=1;absoluteArcSize=1;arcSize=9;fillColor=#182E3E;strokeWidth=2;lucidId=Sqnq5ORAUDPB;strokeColor=#FFFFFF;fontColor=#FFFFFF;labelBackgroundColor=none;" vertex="1" parent="1">
          <mxGeometry x="99" y="388" width="180" height="50" as="geometry" />
        </mxCell>
        <mxCell id="Y__0JkTKTbfwVORT3gNn-100" value="100" style="html=1;overflow=block;blockSpacing=1;whiteSpace=wrap;fontSize=21.8;spacing=3.8;strokeOpacity=0;fillOpacity=0;rounded=1;absoluteArcSize=1;arcSize=9;fillColor=#182E3E;strokeWidth=2.3;lucidId=isnqI1MwnaG3;strokeColor=#FFFFFF;fontColor=#FFFFFF;labelBackgroundColor=none;" vertex="1" parent="1">
          <mxGeometry x="99" y="493" width="180" height="45" as="geometry" />
        </mxCell>
        <mxCell id="Y__0JkTKTbfwVORT3gNn-101" value="300" style="html=1;overflow=block;blockSpacing=1;whiteSpace=wrap;fontSize=23.5;spacing=3.8;strokeOpacity=0;fillOpacity=0;rounded=1;absoluteArcSize=1;arcSize=9;fillColor=#182E3E;strokeWidth=2;lucidId=NtnqVGGFf.KU;strokeColor=#FFFFFF;fontColor=#FFFFFF;labelBackgroundColor=none;" vertex="1" parent="1">
          <mxGeometry x="204" y="393" width="180" height="45" as="geometry" />
        </mxCell>
        <mxCell id="Y__0JkTKTbfwVORT3gNn-102" value="" style="html=1;overflow=block;blockSpacing=1;whiteSpace=wrap;fontSize=13;spacing=9;strokeColor=#FFFFFF;strokeOpacity=100;rounded=1;absoluteArcSize=1;arcSize=9;fillColor=#182E3E;strokeWidth=2;lucidId=funqcVY1rt8x;fontColor=#FFFFFF;labelBackgroundColor=none;" vertex="1" parent="1">
          <mxGeometry x="414" y="351" width="210" height="131" as="geometry" />
        </mxCell>
        <mxCell id="Y__0JkTKTbfwVORT3gNn-103" value="" style="html=1;overflow=block;blockSpacing=1;whiteSpace=wrap;fontSize=13;spacing=0;strokeColor=#FFFFFF;strokeOpacity=100;rounded=1;absoluteArcSize=1;arcSize=9;rotation=-270;fillColor=#182E3E;strokeWidth=2;lucidId=funqXEhAqQCg;fontColor=#FFFFFF;labelBackgroundColor=none;" vertex="1" parent="1">
          <mxGeometry x="448" y="416" width="128" height="2" as="geometry" />
        </mxCell>
        <mxCell id="Y__0JkTKTbfwVORT3gNn-104" value="2" style="html=1;overflow=block;blockSpacing=1;whiteSpace=wrap;fontSize=30.2;spacing=3.8;strokeOpacity=0;fillOpacity=0;rounded=1;absoluteArcSize=1;arcSize=9;fillColor=#182E3E;strokeWidth=2;lucidId=funq-_-mwvkc;strokeColor=#FFFFFF;fontColor=#FFFFFF;labelBackgroundColor=none;" vertex="1" parent="1">
          <mxGeometry x="369" y="391" width="180" height="50" as="geometry" />
        </mxCell>
        <mxCell id="Y__0JkTKTbfwVORT3gNn-105" value="300" style="html=1;overflow=block;blockSpacing=1;whiteSpace=wrap;fontSize=21.8;spacing=3.8;strokeOpacity=0;fillOpacity=0;rounded=1;absoluteArcSize=1;arcSize=9;fillColor=#182E3E;strokeWidth=2.3;lucidId=funqwZg_H~hS;strokeColor=#FFFFFF;fontColor=#FFFFFF;labelBackgroundColor=none;" vertex="1" parent="1">
          <mxGeometry x="384" y="496" width="180" height="45" as="geometry" />
        </mxCell>
        <mxCell id="Y__0JkTKTbfwVORT3gNn-106" value="200" style="html=1;overflow=block;blockSpacing=1;whiteSpace=wrap;fontSize=23.5;spacing=3.8;strokeOpacity=0;fillOpacity=0;rounded=1;absoluteArcSize=1;arcSize=9;fillColor=#182E3E;strokeWidth=2;lucidId=funqLgOdOeUQ;strokeColor=#FFFFFF;fontColor=#FFFFFF;labelBackgroundColor=none;" vertex="1" parent="1">
          <mxGeometry x="474" y="395" width="180" height="45" as="geometry" />
        </mxCell>
        <mxCell id="Y__0JkTKTbfwVORT3gNn-107" value="" style="html=1;jettySize=18;whiteSpace=wrap;fontSize=13;strokeColor=#f08c00;strokeWidth=2;rounded=1;arcSize=12;edgeStyle=orthogonalEdgeStyle;startArrow=none;exitX=1.006;exitY=0.5;exitPerimeter=0;entryX=-0.005;entryY=0.475;entryPerimeter=0;lucidId=zunqpD2wfYcL;labelBackgroundColor=none;fontColor=default;align=center;verticalAlign=middle;fontFamily=Helvetica;endArrow=classic;" edge="1" parent="1" source="Y__0JkTKTbfwVORT3gNn-97" target="Y__0JkTKTbfwVORT3gNn-102">
          <mxGeometry width="100" height="100" relative="1" as="geometry">
            <Array as="points" />
          </mxGeometry>
        </mxCell>
        <mxCell id="Y__0JkTKTbfwVORT3gNn-108" value="" style="html=1;overflow=block;blockSpacing=1;whiteSpace=wrap;fontSize=13;spacing=9;strokeColor=#FFFFFF;strokeOpacity=100;rounded=1;absoluteArcSize=1;arcSize=9;fillColor=#182E3E;strokeWidth=2;lucidId=dxnqlpMRUIvW;fontColor=#FFFFFF;labelBackgroundColor=none;" vertex="1" parent="1">
          <mxGeometry x="729" y="354" width="195" height="131" as="geometry" />
        </mxCell>
        <mxCell id="Y__0JkTKTbfwVORT3gNn-109" value="" style="html=1;overflow=block;blockSpacing=1;whiteSpace=wrap;fontSize=13;spacing=0;strokeColor=#FFFFFF;strokeOpacity=100;rounded=1;absoluteArcSize=1;arcSize=9;rotation=-270;fillColor=#182E3E;strokeWidth=2;lucidId=dxnqFODmpNJx;fontColor=#FFFFFF;labelBackgroundColor=none;" vertex="1" parent="1">
          <mxGeometry x="763" y="420" width="128" height="2" as="geometry" />
        </mxCell>
        <mxCell id="bN7dbDp1LGHQ2UXO1GQq-22" value="" style="edgeStyle=orthogonalEdgeStyle;rounded=1;orthogonalLoop=1;jettySize=auto;html=1;strokeColor=#23445D;" edge="1" parent="1" source="Y__0JkTKTbfwVORT3gNn-110" target="Y__0JkTKTbfwVORT3gNn-106">
          <mxGeometry relative="1" as="geometry" />
        </mxCell>
        <mxCell id="Y__0JkTKTbfwVORT3gNn-110" value="3" style="html=1;overflow=block;blockSpacing=1;whiteSpace=wrap;fontSize=30.2;spacing=3.8;strokeOpacity=0;fillOpacity=0;rounded=1;absoluteArcSize=1;arcSize=9;fillColor=#182E3E;strokeWidth=2;lucidId=dxnqDWt0qBqq;strokeColor=#FFFFFF;fontColor=#FFFFFF;labelBackgroundColor=none;" vertex="1" parent="1">
          <mxGeometry x="684" y="394" width="180" height="50" as="geometry" />
        </mxCell>
        <mxCell id="Y__0JkTKTbfwVORT3gNn-111" value="200" style="html=1;overflow=block;blockSpacing=1;whiteSpace=wrap;fontSize=21.8;spacing=3.8;strokeOpacity=0;fillOpacity=0;rounded=1;absoluteArcSize=1;arcSize=9;fillColor=#182E3E;strokeWidth=2.3;lucidId=dxnqRvoz57E_;strokeColor=#FFFFFF;fontColor=#FFFFFF;labelBackgroundColor=none;" vertex="1" parent="1">
          <mxGeometry x="684" y="499" width="180" height="45" as="geometry" />
        </mxCell>
        <mxCell id="Y__0JkTKTbfwVORT3gNn-112" value="400" style="html=1;overflow=block;blockSpacing=1;whiteSpace=wrap;fontSize=23.5;spacing=3.8;strokeOpacity=0;fillOpacity=0;rounded=1;absoluteArcSize=1;arcSize=9;fillColor=#182E3E;strokeWidth=2;lucidId=dxnqy.PDSBqt;strokeColor=#FFFFFF;fontColor=#FFFFFF;labelBackgroundColor=none;" vertex="1" parent="1">
          <mxGeometry x="789" y="398" width="180" height="45" as="geometry" />
        </mxCell>
        <mxCell id="Y__0JkTKTbfwVORT3gNn-113" value="" style="html=1;overflow=block;blockSpacing=1;whiteSpace=wrap;fontSize=13;spacing=9;strokeColor=#FFFFFF;strokeOpacity=100;rounded=1;absoluteArcSize=1;arcSize=9;fillColor=#182E3E;strokeWidth=2;lucidId=dxnqz9eYnEAL;fontColor=#FFFFFF;labelBackgroundColor=none;" vertex="1" parent="1">
          <mxGeometry x="997" y="357" width="212" height="131" as="geometry" />
        </mxCell>
        <mxCell id="Y__0JkTKTbfwVORT3gNn-114" value="" style="html=1;overflow=block;blockSpacing=1;whiteSpace=wrap;fontSize=13;spacing=0;strokeColor=#FFFFFF;strokeOpacity=100;rounded=1;absoluteArcSize=1;arcSize=9;rotation=-270;fillColor=#182E3E;strokeWidth=2;lucidId=dxnqtMmQlzqm;fontColor=#FFFFFF;labelBackgroundColor=none;" vertex="1" parent="1">
          <mxGeometry x="1033" y="423" width="128" height="2" as="geometry" />
        </mxCell>
        <mxCell id="Y__0JkTKTbfwVORT3gNn-115" value="4" style="html=1;overflow=block;blockSpacing=1;whiteSpace=wrap;fontSize=30.2;spacing=3.8;strokeOpacity=0;fillOpacity=0;rounded=1;absoluteArcSize=1;arcSize=9;fillColor=#182E3E;strokeWidth=2;lucidId=dxnql30kOyMY;strokeColor=#FFFFFF;fontColor=#FFFFFF;labelBackgroundColor=none;" vertex="1" parent="1">
          <mxGeometry x="954" y="397" width="180" height="50" as="geometry" />
        </mxCell>
        <mxCell id="Y__0JkTKTbfwVORT3gNn-116" value="400" style="html=1;overflow=block;blockSpacing=1;whiteSpace=wrap;fontSize=21.8;spacing=3.8;strokeOpacity=0;fillOpacity=0;rounded=1;absoluteArcSize=1;arcSize=9;fillColor=#182E3E;strokeWidth=2.3;lucidId=dxnqcGsJbv1Z;strokeColor=#FFFFFF;fontColor=#FFFFFF;labelBackgroundColor=none;" vertex="1" parent="1">
          <mxGeometry x="969" y="503" width="180" height="45" as="geometry" />
        </mxCell>
        <mxCell id="Y__0JkTKTbfwVORT3gNn-117" value="350" style="html=1;overflow=block;blockSpacing=1;whiteSpace=wrap;fontSize=23.5;spacing=3.8;strokeOpacity=0;fillOpacity=0;rounded=1;absoluteArcSize=1;arcSize=9;fillColor=#182E3E;strokeWidth=2;lucidId=dxnqhTkLd1vg;strokeColor=#FFFFFF;fontColor=#FFFFFF;labelBackgroundColor=none;" vertex="1" parent="1">
          <mxGeometry x="1059" y="401" width="180" height="45" as="geometry" />
        </mxCell>
        <mxCell id="Y__0JkTKTbfwVORT3gNn-118" value="" style="html=1;jettySize=18;whiteSpace=wrap;fontSize=13;strokeColor=#f08c00;strokeWidth=2;rounded=1;arcSize=12;edgeStyle=orthogonalEdgeStyle;startArrow=none;exitX=1.006;exitY=0.5;exitPerimeter=0;entryX=-0.005;entryY=0.475;entryPerimeter=0;lucidId=dxnq_gCFvqC8;labelBackgroundColor=none;fontColor=default;align=center;verticalAlign=middle;fontFamily=Helvetica;endArrow=classic;" edge="1" parent="1" source="Y__0JkTKTbfwVORT3gNn-108" target="Y__0JkTKTbfwVORT3gNn-113">
          <mxGeometry width="100" height="100" relative="1" as="geometry">
            <Array as="points" />
          </mxGeometry>
        </mxCell>
        <mxCell id="Y__0JkTKTbfwVORT3gNn-119" value="" style="html=1;jettySize=18;whiteSpace=wrap;fontSize=13;strokeColor=#f08c00;strokeWidth=2;rounded=1;arcSize=12;edgeStyle=orthogonalEdgeStyle;startArrow=none;exitX=1.005;exitY=0.5;exitPerimeter=0;entryX=-0.006;entryY=0.475;entryPerimeter=0;lucidId=BxnqJ0oVtIos;labelBackgroundColor=none;fontColor=default;align=center;verticalAlign=middle;fontFamily=Helvetica;endArrow=classic;" edge="1" parent="1" source="Y__0JkTKTbfwVORT3gNn-102" target="Y__0JkTKTbfwVORT3gNn-108">
          <mxGeometry width="100" height="100" relative="1" as="geometry">
            <Array as="points" />
          </mxGeometry>
        </mxCell>
        <mxCell id="Y__0JkTKTbfwVORT3gNn-120" value="" style="html=1;overflow=block;blockSpacing=1;whiteSpace=wrap;fontSize=13;spacing=9;strokeColor=#FFFFFF;strokeOpacity=100;rounded=1;absoluteArcSize=1;arcSize=9;fillColor=#182E3E;strokeWidth=2;lucidId=Oynqr56HJ-Z1;fontColor=#FFFFFF;labelBackgroundColor=none;" vertex="1" parent="1">
          <mxGeometry x="1284" y="357" width="210" height="131" as="geometry" />
        </mxCell>
        <mxCell id="Y__0JkTKTbfwVORT3gNn-121" value="" style="html=1;overflow=block;blockSpacing=1;whiteSpace=wrap;fontSize=13;spacing=0;strokeColor=#FFFFFF;strokeOpacity=100;rounded=1;absoluteArcSize=1;arcSize=9;rotation=-270;fillColor=#182E3E;strokeWidth=2;lucidId=OynqC47-i75M;fontColor=#FFFFFF;labelBackgroundColor=none;" vertex="1" parent="1">
          <mxGeometry x="1318" y="423" width="128" height="2" as="geometry" />
        </mxCell>
        <mxCell id="Y__0JkTKTbfwVORT3gNn-122" value="5" style="html=1;overflow=block;blockSpacing=1;whiteSpace=wrap;fontSize=30.2;spacing=3.8;strokeOpacity=0;fillOpacity=0;rounded=1;absoluteArcSize=1;arcSize=9;fillColor=#182E3E;strokeWidth=2;lucidId=OynqTcgPSJFJ;strokeColor=#FFFFFF;fontColor=#FFFFFF;labelBackgroundColor=none;" vertex="1" parent="1">
          <mxGeometry x="1239" y="397" width="180" height="50" as="geometry" />
        </mxCell>
        <mxCell id="Y__0JkTKTbfwVORT3gNn-123" value="350" style="html=1;overflow=block;blockSpacing=1;whiteSpace=wrap;fontSize=21.8;spacing=3.8;strokeOpacity=0;fillOpacity=0;rounded=1;absoluteArcSize=1;arcSize=9;fillColor=#182E3E;strokeWidth=2.3;lucidId=OynqnMEhD2bo;strokeColor=#FFFFFF;fontColor=#FFFFFF;labelBackgroundColor=none;" vertex="1" parent="1">
          <mxGeometry x="1254" y="503" width="180" height="45" as="geometry" />
        </mxCell>
        <mxCell id="Y__0JkTKTbfwVORT3gNn-124" value="NULL" style="html=1;overflow=block;blockSpacing=1;whiteSpace=wrap;fontSize=23.5;spacing=3.8;strokeOpacity=0;fillOpacity=0;rounded=1;absoluteArcSize=1;arcSize=9;fillColor=#182E3E;strokeWidth=2;lucidId=OynqJs_0Q_ax;strokeColor=#FFFFFF;fontColor=#FFFFFF;labelBackgroundColor=none;" vertex="1" parent="1">
          <mxGeometry x="1409" y="401" width="49" height="45" as="geometry" />
        </mxCell>
        <mxCell id="Y__0JkTKTbfwVORT3gNn-125" value="" style="html=1;jettySize=18;whiteSpace=wrap;fontSize=13;strokeColor=#f08c00;strokeWidth=2;rounded=1;arcSize=12;edgeStyle=orthogonalEdgeStyle;startArrow=none;entryX=-0.005;entryY=0.475;entryPerimeter=0;lucidId=Oynq9Rinfg8f;labelBackgroundColor=none;fontColor=default;align=center;verticalAlign=middle;fontFamily=Helvetica;endArrow=classic;" edge="1" parent="1" target="Y__0JkTKTbfwVORT3gNn-120">
          <mxGeometry width="100" height="100" relative="1" as="geometry">
            <Array as="points" />
            <mxPoint x="1210" y="419" as="sourcePoint" />
          </mxGeometry>
        </mxCell>
        <mxCell id="bN7dbDp1LGHQ2UXO1GQq-1" value="1" style="html=1;overflow=block;blockSpacing=1;whiteSpace=wrap;fontSize=21.7;fontColor=#FFFFFF;fontStyle=1;align=center;spacing=9;verticalAlign=middle;strokeColor=#FFFFFF;strokeOpacity=100;rounded=1;absoluteArcSize=1;arcSize=9;fillColor=#182E3E;strokeWidth=2.3;lucidId=x4jqU2PuVZhI;labelBackgroundColor=none;" vertex="1" parent="1">
          <mxGeometry x="729" y="-39" width="120" height="90" as="geometry" />
        </mxCell>
        <mxCell id="bN7dbDp1LGHQ2UXO1GQq-2" value="2" style="html=1;overflow=block;blockSpacing=1;whiteSpace=wrap;fontSize=21.7;fontColor=#FFFFFF;fontStyle=1;align=center;spacing=9;verticalAlign=middle;strokeColor=#FFFFFF;strokeOpacity=100;rounded=1;absoluteArcSize=1;arcSize=9;fillColor=#182E3E;strokeWidth=2.3;lucidId=MTkqi8JtfbLo;labelBackgroundColor=none;" vertex="1" parent="1">
          <mxGeometry x="849" y="-39" width="120" height="90" as="geometry" />
        </mxCell>
        <mxCell id="bN7dbDp1LGHQ2UXO1GQq-3" value="3" style="html=1;overflow=block;blockSpacing=1;whiteSpace=wrap;fontSize=21.7;fontColor=#FFFFFF;fontStyle=1;align=center;spacing=9;verticalAlign=middle;strokeColor=#FFFFFF;strokeOpacity=100;rounded=1;absoluteArcSize=1;arcSize=9;fillColor=#182E3E;strokeWidth=2.3;lucidId=aUkq~17RQUle;labelBackgroundColor=none;" vertex="1" parent="1">
          <mxGeometry x="969" y="-39" width="120" height="90" as="geometry" />
        </mxCell>
        <mxCell id="bN7dbDp1LGHQ2UXO1GQq-4" value="4" style="html=1;overflow=block;blockSpacing=1;whiteSpace=wrap;fontSize=21.7;fontColor=#FFFFFF;fontStyle=1;align=center;spacing=9;verticalAlign=middle;strokeColor=#FFFFFF;strokeOpacity=100;rounded=1;absoluteArcSize=1;arcSize=9;fillColor=#182E3E;strokeWidth=2.3;lucidId=aUkqBrkDytZV;labelBackgroundColor=none;" vertex="1" parent="1">
          <mxGeometry x="1089" y="-39" width="120" height="90" as="geometry" />
        </mxCell>
        <mxCell id="bN7dbDp1LGHQ2UXO1GQq-5" value="5" style="html=1;overflow=block;blockSpacing=1;whiteSpace=wrap;fontSize=21.7;fontColor=#FFFFFF;fontStyle=1;align=center;spacing=9;verticalAlign=middle;strokeColor=#FFFFFF;strokeOpacity=100;rounded=1;absoluteArcSize=1;arcSize=9;fillColor=#182E3E;strokeWidth=2.3;lucidId=iUkqRbolxv_V;labelBackgroundColor=none;" vertex="1" parent="1">
          <mxGeometry x="1209" y="-39" width="120" height="90" as="geometry" />
        </mxCell>
        <mxCell id="bN7dbDp1LGHQ2UXO1GQq-6" value="0" style="html=1;overflow=block;blockSpacing=1;whiteSpace=wrap;fontSize=18.3;fontColor=#FFFFFF;spacing=3.8;strokeOpacity=0;fillOpacity=0;rounded=1;absoluteArcSize=1;arcSize=9;fillColor=#182E3E;strokeWidth=NaN;lucidId=MVkqH5qnIwGY;labelBackgroundColor=none;strokeColor=#FFFFFF;" vertex="1" parent="1">
          <mxGeometry x="744" y="-99" width="90" height="45" as="geometry" />
        </mxCell>
        <mxCell id="bN7dbDp1LGHQ2UXO1GQq-7" value="1" style="html=1;overflow=block;blockSpacing=1;whiteSpace=wrap;fontSize=18.3;fontColor=#FFFFFF;spacing=3.8;strokeOpacity=0;fillOpacity=0;rounded=1;absoluteArcSize=1;arcSize=9;fillColor=#182E3E;strokeWidth=NaN;lucidId=bWkqv3pspfcR;labelBackgroundColor=none;strokeColor=#FFFFFF;" vertex="1" parent="1">
          <mxGeometry x="864" y="-99" width="90" height="45" as="geometry" />
        </mxCell>
        <mxCell id="bN7dbDp1LGHQ2UXO1GQq-8" value="2" style="html=1;overflow=block;blockSpacing=1;whiteSpace=wrap;fontSize=18.3;fontColor=#FFFFFF;spacing=3.8;strokeOpacity=0;fillOpacity=0;rounded=1;absoluteArcSize=1;arcSize=9;fillColor=#182E3E;strokeWidth=NaN;lucidId=sXkqECoY6WM9;labelBackgroundColor=none;strokeColor=#FFFFFF;" vertex="1" parent="1">
          <mxGeometry x="984" y="-99" width="90" height="45" as="geometry" />
        </mxCell>
        <mxCell id="bN7dbDp1LGHQ2UXO1GQq-9" value="3" style="html=1;overflow=block;blockSpacing=1;whiteSpace=wrap;fontSize=18.3;fontColor=#FFFFFF;spacing=3.8;strokeOpacity=0;fillOpacity=0;rounded=1;absoluteArcSize=1;arcSize=9;fillColor=#182E3E;strokeWidth=NaN;lucidId=Pjnq2_bAH1Pa;labelBackgroundColor=none;strokeColor=#FFFFFF;" vertex="1" parent="1">
          <mxGeometry x="1104" y="-99" width="90" height="45" as="geometry" />
        </mxCell>
        <mxCell id="bN7dbDp1LGHQ2UXO1GQq-10" value="4" style="html=1;overflow=block;blockSpacing=1;whiteSpace=wrap;fontSize=18.3;fontColor=#FFFFFF;spacing=3.8;strokeOpacity=0;fillOpacity=0;rounded=1;absoluteArcSize=1;arcSize=9;fillColor=#182E3E;strokeWidth=NaN;lucidId=nknqbPr-jexp;labelBackgroundColor=none;strokeColor=#FFFFFF;" vertex="1" parent="1">
          <mxGeometry x="1224" y="-99" width="90" height="45" as="geometry" />
        </mxCell>
        <mxCell id="bN7dbDp1LGHQ2UXO1GQq-11" value="0" style="html=1;overflow=block;blockSpacing=1;whiteSpace=wrap;fontSize=18.3;fontColor=#FFFFFF;spacing=3.8;strokeOpacity=0;fillOpacity=0;rounded=1;absoluteArcSize=1;arcSize=9;fillColor=#182E3E;strokeWidth=NaN;lucidId=vlnqK7Fq6a_m;labelBackgroundColor=none;strokeColor=#FFFFFF;" vertex="1" parent="1">
          <mxGeometry x="744" y="-99" width="90" height="45" as="geometry" />
        </mxCell>
        <mxCell id="bN7dbDp1LGHQ2UXO1GQq-12" value="1" style="html=1;overflow=block;blockSpacing=1;whiteSpace=wrap;fontSize=18.3;fontColor=#FFFFFF;spacing=3.8;strokeOpacity=0;fillOpacity=0;rounded=1;absoluteArcSize=1;arcSize=9;fillColor=#182E3E;strokeWidth=NaN;lucidId=vlnqNYmCIZ5I;labelBackgroundColor=none;strokeColor=#FFFFFF;" vertex="1" parent="1">
          <mxGeometry x="864" y="-99" width="90" height="45" as="geometry" />
        </mxCell>
        <mxCell id="bN7dbDp1LGHQ2UXO1GQq-13" value="2" style="html=1;overflow=block;blockSpacing=1;whiteSpace=wrap;fontSize=18.3;fontColor=#FFFFFF;spacing=3.8;strokeOpacity=0;fillOpacity=0;rounded=1;absoluteArcSize=1;arcSize=9;fillColor=#182E3E;strokeWidth=NaN;lucidId=vlnqKsCprHHv;labelBackgroundColor=none;strokeColor=#FFFFFF;" vertex="1" parent="1">
          <mxGeometry x="984" y="-99" width="90" height="45" as="geometry" />
        </mxCell>
        <mxCell id="bN7dbDp1LGHQ2UXO1GQq-14" value="3" style="html=1;overflow=block;blockSpacing=1;whiteSpace=wrap;fontSize=18.3;fontColor=#FFFFFF;spacing=3.8;strokeOpacity=0;fillOpacity=0;rounded=1;absoluteArcSize=1;arcSize=9;fillColor=#182E3E;strokeWidth=NaN;lucidId=vlnqYOiyGTId;labelBackgroundColor=none;strokeColor=#FFFFFF;" vertex="1" parent="1">
          <mxGeometry x="1104" y="-99" width="90" height="45" as="geometry" />
        </mxCell>
        <mxCell id="bN7dbDp1LGHQ2UXO1GQq-15" value="4" style="html=1;overflow=block;blockSpacing=1;whiteSpace=wrap;fontSize=18.3;fontColor=#FFFFFF;spacing=3.8;strokeOpacity=0;fillOpacity=0;rounded=1;absoluteArcSize=1;arcSize=9;fillColor=#182E3E;strokeWidth=NaN;lucidId=vlnqbo0dZ~1b;labelBackgroundColor=none;strokeColor=#FFFFFF;" vertex="1" parent="1">
          <mxGeometry x="1224" y="-99" width="90" height="45" as="geometry" />
        </mxCell>
        <mxCell id="bN7dbDp1LGHQ2UXO1GQq-16" value="500" style="html=1;overflow=block;blockSpacing=1;whiteSpace=wrap;fontSize=18.3;fontColor=#FFFFFF;spacing=3.8;strokeOpacity=0;fillOpacity=0;rounded=1;absoluteArcSize=1;arcSize=9;fillColor=#182E3E;strokeWidth=NaN;lucidId=zlnq86HcPJ__;labelBackgroundColor=none;strokeColor=#FFFFFF;" vertex="1" parent="1">
          <mxGeometry x="744" y="66" width="90" height="45" as="geometry" />
        </mxCell>
        <mxCell id="bN7dbDp1LGHQ2UXO1GQq-17" value="504" style="html=1;overflow=block;blockSpacing=1;whiteSpace=wrap;fontSize=18.3;fontColor=#FFFFFF;spacing=3.8;strokeOpacity=0;fillOpacity=0;rounded=1;absoluteArcSize=1;arcSize=9;fillColor=#182E3E;strokeWidth=NaN;lucidId=zlnq2826ufk5;labelBackgroundColor=none;strokeColor=#FFFFFF;" vertex="1" parent="1">
          <mxGeometry x="864" y="66" width="90" height="45" as="geometry" />
        </mxCell>
        <mxCell id="bN7dbDp1LGHQ2UXO1GQq-18" value="508" style="html=1;overflow=block;blockSpacing=1;whiteSpace=wrap;fontSize=18.3;fontColor=#FFFFFF;spacing=3.8;strokeOpacity=0;fillOpacity=0;rounded=1;absoluteArcSize=1;arcSize=9;fillColor=#182E3E;strokeWidth=NaN;lucidId=zlnqsj8uKee1;labelBackgroundColor=none;strokeColor=#FFFFFF;" vertex="1" parent="1">
          <mxGeometry x="984" y="66" width="90" height="45" as="geometry" />
        </mxCell>
        <mxCell id="bN7dbDp1LGHQ2UXO1GQq-19" value="512" style="html=1;overflow=block;blockSpacing=1;whiteSpace=wrap;fontSize=18.3;fontColor=#FFFFFF;spacing=3.8;strokeOpacity=0;fillOpacity=0;rounded=1;absoluteArcSize=1;arcSize=9;fillColor=#182E3E;strokeWidth=NaN;lucidId=zlnqOuy_oTf2;labelBackgroundColor=none;strokeColor=#FFFFFF;" vertex="1" parent="1">
          <mxGeometry x="1104" y="66" width="90" height="45" as="geometry" />
        </mxCell>
        <mxCell id="bN7dbDp1LGHQ2UXO1GQq-20" value="516" style="html=1;overflow=block;blockSpacing=1;whiteSpace=wrap;fontSize=18.3;fontColor=#FFFFFF;spacing=3.8;strokeOpacity=0;fillOpacity=0;rounded=1;absoluteArcSize=1;arcSize=9;fillColor=#182E3E;strokeWidth=NaN;lucidId=zlnquuj07Ss1;labelBackgroundColor=none;strokeColor=#FFFFFF;" vertex="1" parent="1">
          <mxGeometry x="1224" y="66" width="90" height="45" as="geometry" />
        </mxCell>
        <mxCell id="bN7dbDp1LGHQ2UXO1GQq-21" value="arr" style="html=1;overflow=block;blockSpacing=1;whiteSpace=wrap;fontSize=30.2;fontColor=#FFFFFF;fontStyle=1;spacing=3.8;strokeOpacity=0;fillOpacity=0;rounded=1;absoluteArcSize=1;arcSize=9;fillColor=#182E3E;strokeWidth=2.3;lucidId=XmnqVoXLe.pK;labelBackgroundColor=none;strokeColor=#FFFFFF;" vertex="1" parent="1">
          <mxGeometry x="564" y="-20" width="180" height="51" as="geometry" />
        </mxCell>
      </root>
    </mxGraphModel>
  </diagram>
  <diagram id="JcZ50Nf2NpStOYfdvbcc" name="editing page">
    <mxGraphModel dx="3400" dy="1660" grid="0" gridSize="10" guides="1" tooltips="1" connect="1" arrows="1" fold="1" page="0" pageScale="1" pageWidth="1169" pageHeight="827" background="#000000" math="0" shadow="0">
      <root>
        <mxCell id="0" />
        <mxCell id="1" parent="0" />
        <mxCell id="5MrJC9Fv7mqZpnUCFobw-1" value="" style="html=1;overflow=block;blockSpacing=1;whiteSpace=wrap;fontSize=13;spacing=9;strokeColor=#FFFFFF;strokeOpacity=100;rounded=1;absoluteArcSize=1;arcSize=9;fillColor=#182E3E;strokeWidth=2;lucidId=lonqCEzBW5gV;fontColor=#FFFFFF;labelBackgroundColor=none;" vertex="1" parent="1">
          <mxGeometry x="144" y="347" width="195" height="131" as="geometry" />
        </mxCell>
        <mxCell id="5MrJC9Fv7mqZpnUCFobw-2" value="" style="html=1;overflow=block;blockSpacing=1;whiteSpace=wrap;fontSize=13;spacing=0;strokeColor=#FFFFFF;strokeOpacity=100;rounded=1;absoluteArcSize=1;arcSize=9;rotation=-270;fillColor=#182E3E;strokeWidth=2;lucidId=.pnqXwC.xLCP;fontColor=#FFFFFF;labelBackgroundColor=none;" vertex="1" parent="1">
          <mxGeometry x="178" y="413" width="128" height="2" as="geometry" />
        </mxCell>
        <mxCell id="5MrJC9Fv7mqZpnUCFobw-3" value="1" style="html=1;overflow=block;blockSpacing=1;whiteSpace=wrap;fontSize=30.2;spacing=3.8;strokeOpacity=0;fillOpacity=0;rounded=1;absoluteArcSize=1;arcSize=9;fillColor=#182E3E;strokeWidth=2;lucidId=Sqnq5ORAUDPB;strokeColor=#FFFFFF;fontColor=#FFFFFF;labelBackgroundColor=none;" vertex="1" parent="1">
          <mxGeometry x="99" y="388" width="180" height="50" as="geometry" />
        </mxCell>
        <mxCell id="5MrJC9Fv7mqZpnUCFobw-4" value="100" style="html=1;overflow=block;blockSpacing=1;whiteSpace=wrap;fontSize=21.8;spacing=3.8;strokeOpacity=0;fillOpacity=0;rounded=1;absoluteArcSize=1;arcSize=9;fillColor=#182E3E;strokeWidth=2.3;lucidId=isnqI1MwnaG3;strokeColor=#FFFFFF;fontColor=#FFFFFF;labelBackgroundColor=none;" vertex="1" parent="1">
          <mxGeometry x="99" y="493" width="180" height="45" as="geometry" />
        </mxCell>
        <mxCell id="5MrJC9Fv7mqZpnUCFobw-5" value="300" style="html=1;overflow=block;blockSpacing=1;whiteSpace=wrap;fontSize=23.5;spacing=3.8;strokeOpacity=0;fillOpacity=0;rounded=1;absoluteArcSize=1;arcSize=9;fillColor=#182E3E;strokeWidth=2;lucidId=NtnqVGGFf.KU;strokeColor=#FFFFFF;fontColor=#FFFFFF;labelBackgroundColor=none;" vertex="1" parent="1">
          <mxGeometry x="204" y="393" width="180" height="45" as="geometry" />
        </mxCell>
        <mxCell id="5MrJC9Fv7mqZpnUCFobw-6" value="" style="html=1;overflow=block;blockSpacing=1;whiteSpace=wrap;fontSize=13;spacing=9;strokeColor=#FFFFFF;strokeOpacity=100;rounded=1;absoluteArcSize=1;arcSize=9;fillColor=#182E3E;strokeWidth=2;lucidId=funqcVY1rt8x;fontColor=#FFFFFF;labelBackgroundColor=none;" vertex="1" parent="1">
          <mxGeometry x="414" y="351" width="210" height="131" as="geometry" />
        </mxCell>
        <mxCell id="5MrJC9Fv7mqZpnUCFobw-7" value="" style="html=1;overflow=block;blockSpacing=1;whiteSpace=wrap;fontSize=13;spacing=0;strokeColor=#FFFFFF;strokeOpacity=100;rounded=1;absoluteArcSize=1;arcSize=9;rotation=-270;fillColor=#182E3E;strokeWidth=2;lucidId=funqXEhAqQCg;fontColor=#FFFFFF;labelBackgroundColor=none;" vertex="1" parent="1">
          <mxGeometry x="448" y="416" width="128" height="2" as="geometry" />
        </mxCell>
        <mxCell id="5MrJC9Fv7mqZpnUCFobw-8" value="2" style="html=1;overflow=block;blockSpacing=1;whiteSpace=wrap;fontSize=30.2;spacing=3.8;strokeOpacity=0;fillOpacity=0;rounded=1;absoluteArcSize=1;arcSize=9;fillColor=#182E3E;strokeWidth=2;lucidId=funq-_-mwvkc;strokeColor=#FFFFFF;fontColor=#FFFFFF;labelBackgroundColor=none;" vertex="1" parent="1">
          <mxGeometry x="369" y="391" width="180" height="50" as="geometry" />
        </mxCell>
        <mxCell id="5MrJC9Fv7mqZpnUCFobw-9" value="300" style="html=1;overflow=block;blockSpacing=1;whiteSpace=wrap;fontSize=21.8;spacing=3.8;strokeOpacity=0;fillOpacity=0;rounded=1;absoluteArcSize=1;arcSize=9;fillColor=#182E3E;strokeWidth=2.3;lucidId=funqwZg_H~hS;strokeColor=#FFFFFF;fontColor=#FFFFFF;labelBackgroundColor=none;" vertex="1" parent="1">
          <mxGeometry x="384" y="496" width="180" height="45" as="geometry" />
        </mxCell>
        <mxCell id="5MrJC9Fv7mqZpnUCFobw-35" value="" style="edgeStyle=orthogonalEdgeStyle;rounded=0;orthogonalLoop=1;jettySize=auto;html=1;strokeColor=#A8201A;fontColor=#143642;fillColor=#FAE5C7;" edge="1" parent="1" source="5MrJC9Fv7mqZpnUCFobw-10" target="5MrJC9Fv7mqZpnUCFobw-15">
          <mxGeometry relative="1" as="geometry" />
        </mxCell>
        <mxCell id="5MrJC9Fv7mqZpnUCFobw-10" value="200" style="html=1;overflow=block;blockSpacing=1;whiteSpace=wrap;fontSize=23.5;spacing=3.8;strokeOpacity=0;fillOpacity=0;rounded=1;absoluteArcSize=1;arcSize=9;fillColor=#182E3E;strokeWidth=2;lucidId=funqLgOdOeUQ;strokeColor=#FFFFFF;fontColor=#FFFFFF;labelBackgroundColor=none;" vertex="1" parent="1">
          <mxGeometry x="474" y="395" width="180" height="45" as="geometry" />
        </mxCell>
        <mxCell id="5MrJC9Fv7mqZpnUCFobw-11" value="" style="html=1;jettySize=18;whiteSpace=wrap;fontSize=13;strokeColor=#f08c00;strokeWidth=2;rounded=1;arcSize=12;edgeStyle=orthogonalEdgeStyle;startArrow=none;exitX=1.006;exitY=0.5;exitPerimeter=0;entryX=-0.005;entryY=0.475;entryPerimeter=0;lucidId=zunqpD2wfYcL;labelBackgroundColor=none;fontColor=default;align=center;verticalAlign=middle;fontFamily=Helvetica;endArrow=classic;" edge="1" parent="1" source="5MrJC9Fv7mqZpnUCFobw-1" target="5MrJC9Fv7mqZpnUCFobw-6">
          <mxGeometry width="100" height="100" relative="1" as="geometry">
            <Array as="points" />
          </mxGeometry>
        </mxCell>
        <mxCell id="5MrJC9Fv7mqZpnUCFobw-12" value="" style="html=1;overflow=block;blockSpacing=1;whiteSpace=wrap;fontSize=13;spacing=9;strokeColor=#FFFFFF;strokeOpacity=100;rounded=1;absoluteArcSize=1;arcSize=9;fillColor=#182E3E;strokeWidth=2;lucidId=dxnqlpMRUIvW;fontColor=#FFFFFF;labelBackgroundColor=none;" vertex="1" parent="1">
          <mxGeometry x="729" y="354" width="195" height="131" as="geometry" />
        </mxCell>
        <mxCell id="5MrJC9Fv7mqZpnUCFobw-13" value="" style="html=1;overflow=block;blockSpacing=1;whiteSpace=wrap;fontSize=13;spacing=0;strokeColor=#FFFFFF;strokeOpacity=100;rounded=1;absoluteArcSize=1;arcSize=9;rotation=-270;fillColor=#182E3E;strokeWidth=2;lucidId=dxnqFODmpNJx;fontColor=#FFFFFF;labelBackgroundColor=none;" vertex="1" parent="1">
          <mxGeometry x="763" y="420" width="128" height="2" as="geometry" />
        </mxCell>
        <mxCell id="5MrJC9Fv7mqZpnUCFobw-14" value="" style="edgeStyle=orthogonalEdgeStyle;rounded=1;orthogonalLoop=1;jettySize=auto;html=1;strokeColor=#23445D;" edge="1" parent="1" source="5MrJC9Fv7mqZpnUCFobw-15" target="5MrJC9Fv7mqZpnUCFobw-10">
          <mxGeometry relative="1" as="geometry" />
        </mxCell>
        <mxCell id="5MrJC9Fv7mqZpnUCFobw-15" value="3" style="html=1;overflow=block;blockSpacing=1;whiteSpace=wrap;fontSize=30.2;spacing=3.8;strokeOpacity=0;fillOpacity=0;rounded=1;absoluteArcSize=1;arcSize=9;fillColor=#182E3E;strokeWidth=2;lucidId=dxnqDWt0qBqq;strokeColor=#FFFFFF;fontColor=#FFFFFF;labelBackgroundColor=none;" vertex="1" parent="1">
          <mxGeometry x="684" y="394" width="180" height="50" as="geometry" />
        </mxCell>
        <mxCell id="5MrJC9Fv7mqZpnUCFobw-16" value="200" style="html=1;overflow=block;blockSpacing=1;whiteSpace=wrap;fontSize=21.8;spacing=3.8;strokeOpacity=0;fillOpacity=0;rounded=1;absoluteArcSize=1;arcSize=9;fillColor=#182E3E;strokeWidth=2.3;lucidId=dxnqRvoz57E_;strokeColor=#FFFFFF;fontColor=#FFFFFF;labelBackgroundColor=none;" vertex="1" parent="1">
          <mxGeometry x="684" y="499" width="180" height="45" as="geometry" />
        </mxCell>
        <mxCell id="5MrJC9Fv7mqZpnUCFobw-17" value="400" style="html=1;overflow=block;blockSpacing=1;whiteSpace=wrap;fontSize=23.5;spacing=3.8;strokeOpacity=0;fillOpacity=0;rounded=1;absoluteArcSize=1;arcSize=9;fillColor=#182E3E;strokeWidth=2;lucidId=dxnqy.PDSBqt;strokeColor=#FFFFFF;fontColor=#FFFFFF;labelBackgroundColor=none;" vertex="1" parent="1">
          <mxGeometry x="789" y="398" width="180" height="45" as="geometry" />
        </mxCell>
        <mxCell id="5MrJC9Fv7mqZpnUCFobw-18" value="" style="html=1;overflow=block;blockSpacing=1;whiteSpace=wrap;fontSize=13;spacing=9;strokeColor=#FFFFFF;strokeOpacity=100;rounded=1;absoluteArcSize=1;arcSize=9;fillColor=#182E3E;strokeWidth=2;lucidId=dxnqz9eYnEAL;fontColor=#FFFFFF;labelBackgroundColor=none;" vertex="1" parent="1">
          <mxGeometry x="997" y="357" width="212" height="131" as="geometry" />
        </mxCell>
        <mxCell id="5MrJC9Fv7mqZpnUCFobw-19" value="" style="html=1;overflow=block;blockSpacing=1;whiteSpace=wrap;fontSize=13;spacing=0;strokeColor=#FFFFFF;strokeOpacity=100;rounded=1;absoluteArcSize=1;arcSize=9;rotation=-270;fillColor=#182E3E;strokeWidth=2;lucidId=dxnqtMmQlzqm;fontColor=#FFFFFF;labelBackgroundColor=none;" vertex="1" parent="1">
          <mxGeometry x="1033" y="423" width="128" height="2" as="geometry" />
        </mxCell>
        <mxCell id="5MrJC9Fv7mqZpnUCFobw-20" value="4" style="html=1;overflow=block;blockSpacing=1;whiteSpace=wrap;fontSize=30.2;spacing=3.8;strokeOpacity=0;fillOpacity=0;rounded=1;absoluteArcSize=1;arcSize=9;fillColor=#182E3E;strokeWidth=2;lucidId=dxnql30kOyMY;strokeColor=#FFFFFF;fontColor=#FFFFFF;labelBackgroundColor=none;" vertex="1" parent="1">
          <mxGeometry x="954" y="397" width="180" height="50" as="geometry" />
        </mxCell>
        <mxCell id="5MrJC9Fv7mqZpnUCFobw-21" value="400" style="html=1;overflow=block;blockSpacing=1;whiteSpace=wrap;fontSize=21.8;spacing=3.8;strokeOpacity=0;fillOpacity=0;rounded=1;absoluteArcSize=1;arcSize=9;fillColor=#182E3E;strokeWidth=2.3;lucidId=dxnqcGsJbv1Z;strokeColor=#FFFFFF;fontColor=#FFFFFF;labelBackgroundColor=none;" vertex="1" parent="1">
          <mxGeometry x="969" y="503" width="180" height="45" as="geometry" />
        </mxCell>
        <mxCell id="5MrJC9Fv7mqZpnUCFobw-22" value="350" style="html=1;overflow=block;blockSpacing=1;whiteSpace=wrap;fontSize=23.5;spacing=3.8;strokeOpacity=0;fillOpacity=0;rounded=1;absoluteArcSize=1;arcSize=9;fillColor=#182E3E;strokeWidth=2;lucidId=dxnqhTkLd1vg;strokeColor=#FFFFFF;fontColor=#FFFFFF;labelBackgroundColor=none;" vertex="1" parent="1">
          <mxGeometry x="1059" y="401" width="180" height="45" as="geometry" />
        </mxCell>
        <mxCell id="5MrJC9Fv7mqZpnUCFobw-23" value="" style="html=1;jettySize=18;whiteSpace=wrap;fontSize=13;strokeColor=#f08c00;strokeWidth=2;rounded=1;arcSize=12;edgeStyle=orthogonalEdgeStyle;startArrow=none;exitX=1.006;exitY=0.5;exitPerimeter=0;entryX=-0.005;entryY=0.475;entryPerimeter=0;lucidId=dxnq_gCFvqC8;labelBackgroundColor=none;fontColor=default;align=center;verticalAlign=middle;fontFamily=Helvetica;endArrow=classic;" edge="1" parent="1" source="5MrJC9Fv7mqZpnUCFobw-12" target="5MrJC9Fv7mqZpnUCFobw-18">
          <mxGeometry width="100" height="100" relative="1" as="geometry">
            <Array as="points" />
          </mxGeometry>
        </mxCell>
        <mxCell id="5MrJC9Fv7mqZpnUCFobw-24" value="" style="html=1;jettySize=18;whiteSpace=wrap;fontSize=13;strokeColor=#f08c00;strokeWidth=2;rounded=1;arcSize=12;edgeStyle=orthogonalEdgeStyle;startArrow=none;exitX=1.005;exitY=0.5;exitPerimeter=0;entryX=-0.006;entryY=0.475;entryPerimeter=0;lucidId=BxnqJ0oVtIos;labelBackgroundColor=none;fontColor=default;align=center;verticalAlign=middle;fontFamily=Helvetica;endArrow=classic;" edge="1" parent="1" source="5MrJC9Fv7mqZpnUCFobw-6" target="5MrJC9Fv7mqZpnUCFobw-12">
          <mxGeometry width="100" height="100" relative="1" as="geometry">
            <Array as="points" />
          </mxGeometry>
        </mxCell>
        <mxCell id="5MrJC9Fv7mqZpnUCFobw-25" value="" style="html=1;overflow=block;blockSpacing=1;whiteSpace=wrap;fontSize=13;spacing=9;strokeColor=#FFFFFF;strokeOpacity=100;rounded=1;absoluteArcSize=1;arcSize=9;fillColor=#182E3E;strokeWidth=2;lucidId=Oynqr56HJ-Z1;fontColor=#FFFFFF;labelBackgroundColor=none;" vertex="1" parent="1">
          <mxGeometry x="1284" y="357" width="210" height="131" as="geometry" />
        </mxCell>
        <mxCell id="5MrJC9Fv7mqZpnUCFobw-26" value="" style="html=1;overflow=block;blockSpacing=1;whiteSpace=wrap;fontSize=13;spacing=0;strokeColor=#FFFFFF;strokeOpacity=100;rounded=1;absoluteArcSize=1;arcSize=9;rotation=-270;fillColor=#182E3E;strokeWidth=2;lucidId=OynqC47-i75M;fontColor=#FFFFFF;labelBackgroundColor=none;" vertex="1" parent="1">
          <mxGeometry x="1318" y="423" width="128" height="2" as="geometry" />
        </mxCell>
        <mxCell id="5MrJC9Fv7mqZpnUCFobw-27" value="5" style="html=1;overflow=block;blockSpacing=1;whiteSpace=wrap;fontSize=30.2;spacing=3.8;strokeOpacity=0;fillOpacity=0;rounded=1;absoluteArcSize=1;arcSize=9;fillColor=#182E3E;strokeWidth=2;lucidId=OynqTcgPSJFJ;strokeColor=#FFFFFF;fontColor=#FFFFFF;labelBackgroundColor=none;" vertex="1" parent="1">
          <mxGeometry x="1239" y="397" width="180" height="50" as="geometry" />
        </mxCell>
        <mxCell id="5MrJC9Fv7mqZpnUCFobw-28" value="350" style="html=1;overflow=block;blockSpacing=1;whiteSpace=wrap;fontSize=21.8;spacing=3.8;strokeOpacity=0;fillOpacity=0;rounded=1;absoluteArcSize=1;arcSize=9;fillColor=#182E3E;strokeWidth=2.3;lucidId=OynqnMEhD2bo;strokeColor=#FFFFFF;fontColor=#FFFFFF;labelBackgroundColor=none;" vertex="1" parent="1">
          <mxGeometry x="1254" y="503" width="180" height="45" as="geometry" />
        </mxCell>
        <mxCell id="5MrJC9Fv7mqZpnUCFobw-29" value="NULL" style="html=1;overflow=block;blockSpacing=1;whiteSpace=wrap;fontSize=23.5;spacing=3.8;strokeOpacity=0;fillOpacity=0;rounded=1;absoluteArcSize=1;arcSize=9;fillColor=#182E3E;strokeWidth=2;lucidId=OynqJs_0Q_ax;strokeColor=#FFFFFF;fontColor=#FFFFFF;labelBackgroundColor=none;" vertex="1" parent="1">
          <mxGeometry x="1409" y="401" width="49" height="45" as="geometry" />
        </mxCell>
        <mxCell id="5MrJC9Fv7mqZpnUCFobw-30" value="" style="html=1;jettySize=18;whiteSpace=wrap;fontSize=13;strokeColor=#f08c00;strokeWidth=2;rounded=1;arcSize=12;edgeStyle=orthogonalEdgeStyle;startArrow=none;entryX=-0.005;entryY=0.475;entryPerimeter=0;lucidId=Oynq9Rinfg8f;labelBackgroundColor=none;fontColor=default;align=center;verticalAlign=middle;fontFamily=Helvetica;endArrow=classic;" edge="1" parent="1" target="5MrJC9Fv7mqZpnUCFobw-25">
          <mxGeometry width="100" height="100" relative="1" as="geometry">
            <Array as="points" />
            <mxPoint x="1210" y="419" as="sourcePoint" />
          </mxGeometry>
        </mxCell>
        <mxCell id="5MrJC9Fv7mqZpnUCFobw-34" value="" style="edgeStyle=orthogonalEdgeStyle;rounded=1;orthogonalLoop=1;jettySize=auto;html=1;strokeColor=#f08c00;fontColor=default;fillColor=#FAE5C7;strokeWidth=2;align=center;verticalAlign=middle;arcSize=12;fontFamily=Helvetica;fontSize=13;labelBackgroundColor=none;startArrow=none;endArrow=classic;" edge="1" parent="1" source="5MrJC9Fv7mqZpnUCFobw-31">
          <mxGeometry relative="1" as="geometry">
            <mxPoint x="242" y="479" as="targetPoint" />
          </mxGeometry>
        </mxCell>
        <mxCell id="5MrJC9Fv7mqZpnUCFobw-31" value="" style="html=1;overflow=block;blockSpacing=1;whiteSpace=wrap;fontSize=13;spacing=9;strokeColor=#FFFFFF;strokeOpacity=100;rounded=1;absoluteArcSize=1;arcSize=9;fillColor=#182E3E;strokeWidth=2;lucidId=Oynqr56HJ-Z1;fontColor=#FFFFFF;labelBackgroundColor=none;" vertex="1" parent="1">
          <mxGeometry x="136.5" y="588" width="210" height="131" as="geometry" />
        </mxCell>
        <mxCell id="5MrJC9Fv7mqZpnUCFobw-36" value="&lt;sup&gt;&lt;font color=&quot;#ffffff&quot; style=&quot;font-size: 21px;&quot;&gt;100&lt;/font&gt;&lt;/sup&gt;" style="text;html=1;align=center;verticalAlign=middle;whiteSpace=wrap;rounded=0;fontFamily=Helvetica;fontSize=13;fontColor=default;labelBackgroundColor=none;" vertex="1" parent="1">
          <mxGeometry x="209" y="641" width="60" height="30" as="geometry" />
        </mxCell>
        <mxCell id="5MrJC9Fv7mqZpnUCFobw-37" value="Head&lt;div&gt;&lt;br&gt;&lt;/div&gt;" style="html=1;overflow=block;blockSpacing=1;whiteSpace=wrap;fontSize=30.2;spacing=3.8;strokeOpacity=0;fillOpacity=0;rounded=1;absoluteArcSize=1;arcSize=9;fillColor=#182E3E;strokeWidth=2;lucidId=Sqnq5ORAUDPB;strokeColor=#FFFFFF;fontColor=#FFFFFF;labelBackgroundColor=none;" vertex="1" parent="1">
          <mxGeometry x="149" y="735" width="180" height="50" as="geometry" />
        </mxCell>
        <mxCell id="5MrJC9Fv7mqZpnUCFobw-41" value="" style="html=1;overflow=block;blockSpacing=1;whiteSpace=wrap;fontSize=13;spacing=9;strokeColor=#FFFFFF;strokeOpacity=100;rounded=1;absoluteArcSize=1;arcSize=9;fillColor=#182E3E;strokeWidth=2;lucidId=Oynqr56HJ-Z1;fontColor=#FFFFFF;labelBackgroundColor=none;" vertex="1" parent="1">
          <mxGeometry x="453" y="1178" width="210" height="131" as="geometry" />
        </mxCell>
        <mxCell id="5MrJC9Fv7mqZpnUCFobw-42" value="&lt;sup&gt;&lt;font color=&quot;#ffffff&quot; style=&quot;font-size: 21px;&quot;&gt;300&lt;/font&gt;&lt;/sup&gt;" style="text;html=1;align=center;verticalAlign=middle;whiteSpace=wrap;rounded=0;fontFamily=Helvetica;fontSize=13;fontColor=default;labelBackgroundColor=none;" vertex="1" parent="1">
          <mxGeometry x="535.5" y="1228.5" width="60" height="30" as="geometry" />
        </mxCell>
        <mxCell id="5MrJC9Fv7mqZpnUCFobw-43" value="&lt;div&gt;temp&lt;/div&gt;" style="html=1;overflow=block;blockSpacing=1;whiteSpace=wrap;fontSize=30.2;spacing=3.8;strokeOpacity=0;fillOpacity=0;rounded=1;absoluteArcSize=1;arcSize=9;fillColor=#182E3E;strokeWidth=2;lucidId=Sqnq5ORAUDPB;strokeColor=#FFFFFF;fontColor=#FFFFFF;labelBackgroundColor=none;" vertex="1" parent="1">
          <mxGeometry x="475.5" y="1322.5" width="180" height="50" as="geometry" />
        </mxCell>
        <mxCell id="5MrJC9Fv7mqZpnUCFobw-44" value="Step - 1(original)" style="html=1;overflow=block;blockSpacing=1;whiteSpace=wrap;fontSize=30.2;spacing=3.8;strokeOpacity=0;fillOpacity=0;rounded=1;absoluteArcSize=1;arcSize=9;fillColor=#182E3E;strokeWidth=2;lucidId=Sqnq5ORAUDPB;strokeColor=#FFFFFF;fontColor=#FFFFFF;labelBackgroundColor=none;" vertex="1" parent="1">
          <mxGeometry x="123" y="259" width="359" height="50" as="geometry" />
        </mxCell>
        <mxCell id="5MrJC9Fv7mqZpnUCFobw-45" value="" style="html=1;overflow=block;blockSpacing=1;whiteSpace=wrap;fontSize=13;spacing=9;strokeColor=#FFFFFF;strokeOpacity=100;rounded=1;absoluteArcSize=1;arcSize=9;fillColor=#182E3E;strokeWidth=2;lucidId=lonqCEzBW5gV;fontColor=#FFFFFF;labelBackgroundColor=none;" vertex="1" parent="1">
          <mxGeometry x="144" y="937" width="195" height="131" as="geometry" />
        </mxCell>
        <mxCell id="5MrJC9Fv7mqZpnUCFobw-46" value="" style="html=1;overflow=block;blockSpacing=1;whiteSpace=wrap;fontSize=13;spacing=0;strokeColor=#FFFFFF;strokeOpacity=100;rounded=1;absoluteArcSize=1;arcSize=9;rotation=-270;fillColor=#182E3E;strokeWidth=2;lucidId=.pnqXwC.xLCP;fontColor=#FFFFFF;labelBackgroundColor=none;" vertex="1" parent="1">
          <mxGeometry x="178" y="1003" width="128" height="2" as="geometry" />
        </mxCell>
        <mxCell id="5MrJC9Fv7mqZpnUCFobw-47" value="1" style="html=1;overflow=block;blockSpacing=1;whiteSpace=wrap;fontSize=30.2;spacing=3.8;strokeOpacity=0;fillOpacity=0;rounded=1;absoluteArcSize=1;arcSize=9;fillColor=#182E3E;strokeWidth=2;lucidId=Sqnq5ORAUDPB;strokeColor=#FFFFFF;fontColor=#FFFFFF;labelBackgroundColor=none;" vertex="1" parent="1">
          <mxGeometry x="99" y="978" width="180" height="50" as="geometry" />
        </mxCell>
        <mxCell id="5MrJC9Fv7mqZpnUCFobw-48" value="100" style="html=1;overflow=block;blockSpacing=1;whiteSpace=wrap;fontSize=21.8;spacing=3.8;strokeOpacity=0;fillOpacity=0;rounded=1;absoluteArcSize=1;arcSize=9;fillColor=#182E3E;strokeWidth=2.3;lucidId=isnqI1MwnaG3;strokeColor=#FFFFFF;fontColor=#FFFFFF;labelBackgroundColor=none;" vertex="1" parent="1">
          <mxGeometry x="99" y="1083" width="180" height="45" as="geometry" />
        </mxCell>
        <mxCell id="5MrJC9Fv7mqZpnUCFobw-49" value="300" style="html=1;overflow=block;blockSpacing=1;whiteSpace=wrap;fontSize=23.5;spacing=3.8;strokeOpacity=0;fillOpacity=0;rounded=1;absoluteArcSize=1;arcSize=9;fillColor=#182E3E;strokeWidth=2;lucidId=NtnqVGGFf.KU;strokeColor=#FFFFFF;fontColor=#FFFFFF;labelBackgroundColor=none;" vertex="1" parent="1">
          <mxGeometry x="204" y="983" width="180" height="45" as="geometry" />
        </mxCell>
        <mxCell id="5MrJC9Fv7mqZpnUCFobw-50" value="" style="html=1;overflow=block;blockSpacing=1;whiteSpace=wrap;fontSize=13;spacing=9;strokeColor=#FFFFFF;strokeOpacity=100;rounded=1;absoluteArcSize=1;arcSize=9;fillColor=#182E3E;strokeWidth=2;lucidId=funqcVY1rt8x;fontColor=#FFFFFF;labelBackgroundColor=none;" vertex="1" parent="1">
          <mxGeometry x="414" y="941" width="210" height="131" as="geometry" />
        </mxCell>
        <mxCell id="5MrJC9Fv7mqZpnUCFobw-51" value="" style="html=1;overflow=block;blockSpacing=1;whiteSpace=wrap;fontSize=13;spacing=0;strokeColor=#FFFFFF;strokeOpacity=100;rounded=1;absoluteArcSize=1;arcSize=9;rotation=-270;fillColor=#182E3E;strokeWidth=2;lucidId=funqXEhAqQCg;fontColor=#FFFFFF;labelBackgroundColor=none;" vertex="1" parent="1">
          <mxGeometry x="448" y="1006" width="128" height="2" as="geometry" />
        </mxCell>
        <mxCell id="5MrJC9Fv7mqZpnUCFobw-52" value="2" style="html=1;overflow=block;blockSpacing=1;whiteSpace=wrap;fontSize=30.2;spacing=3.8;strokeOpacity=0;fillOpacity=0;rounded=1;absoluteArcSize=1;arcSize=9;fillColor=#182E3E;strokeWidth=2;lucidId=funq-_-mwvkc;strokeColor=#FFFFFF;fontColor=#FFFFFF;labelBackgroundColor=none;" vertex="1" parent="1">
          <mxGeometry x="369" y="981" width="180" height="50" as="geometry" />
        </mxCell>
        <mxCell id="5MrJC9Fv7mqZpnUCFobw-53" value="300" style="html=1;overflow=block;blockSpacing=1;whiteSpace=wrap;fontSize=21.8;spacing=3.8;strokeOpacity=0;fillOpacity=0;rounded=1;absoluteArcSize=1;arcSize=9;fillColor=#182E3E;strokeWidth=2.3;lucidId=funqwZg_H~hS;strokeColor=#FFFFFF;fontColor=#FFFFFF;labelBackgroundColor=none;" vertex="1" parent="1">
          <mxGeometry x="384" y="1086" width="180" height="45" as="geometry" />
        </mxCell>
        <mxCell id="5MrJC9Fv7mqZpnUCFobw-54" value="" style="edgeStyle=orthogonalEdgeStyle;rounded=0;orthogonalLoop=1;jettySize=auto;html=1;strokeColor=#A8201A;fontColor=#143642;fillColor=#FAE5C7;" edge="1" parent="1" source="5MrJC9Fv7mqZpnUCFobw-55" target="5MrJC9Fv7mqZpnUCFobw-60">
          <mxGeometry relative="1" as="geometry" />
        </mxCell>
        <mxCell id="5MrJC9Fv7mqZpnUCFobw-55" value="200" style="html=1;overflow=block;blockSpacing=1;whiteSpace=wrap;fontSize=23.5;spacing=3.8;strokeOpacity=0;fillOpacity=0;rounded=1;absoluteArcSize=1;arcSize=9;fillColor=#182E3E;strokeWidth=2;lucidId=funqLgOdOeUQ;strokeColor=#FFFFFF;fontColor=#FFFFFF;labelBackgroundColor=none;" vertex="1" parent="1">
          <mxGeometry x="474" y="985" width="180" height="45" as="geometry" />
        </mxCell>
        <mxCell id="5MrJC9Fv7mqZpnUCFobw-56" value="" style="html=1;jettySize=18;whiteSpace=wrap;fontSize=13;strokeColor=#f08c00;strokeWidth=2;rounded=1;arcSize=12;edgeStyle=orthogonalEdgeStyle;startArrow=none;exitX=1.006;exitY=0.5;exitPerimeter=0;entryX=-0.005;entryY=0.475;entryPerimeter=0;lucidId=zunqpD2wfYcL;labelBackgroundColor=none;fontColor=default;align=center;verticalAlign=middle;fontFamily=Helvetica;endArrow=classic;" edge="1" parent="1" source="5MrJC9Fv7mqZpnUCFobw-45" target="5MrJC9Fv7mqZpnUCFobw-50">
          <mxGeometry width="100" height="100" relative="1" as="geometry">
            <Array as="points" />
          </mxGeometry>
        </mxCell>
        <mxCell id="5MrJC9Fv7mqZpnUCFobw-57" value="" style="html=1;overflow=block;blockSpacing=1;whiteSpace=wrap;fontSize=13;spacing=9;strokeColor=#FFFFFF;strokeOpacity=100;rounded=1;absoluteArcSize=1;arcSize=9;fillColor=#182E3E;strokeWidth=2;lucidId=dxnqlpMRUIvW;fontColor=#FFFFFF;labelBackgroundColor=none;" vertex="1" parent="1">
          <mxGeometry x="729" y="944" width="195" height="131" as="geometry" />
        </mxCell>
        <mxCell id="5MrJC9Fv7mqZpnUCFobw-58" value="" style="html=1;overflow=block;blockSpacing=1;whiteSpace=wrap;fontSize=13;spacing=0;strokeColor=#FFFFFF;strokeOpacity=100;rounded=1;absoluteArcSize=1;arcSize=9;rotation=-270;fillColor=#182E3E;strokeWidth=2;lucidId=dxnqFODmpNJx;fontColor=#FFFFFF;labelBackgroundColor=none;" vertex="1" parent="1">
          <mxGeometry x="763" y="1010" width="128" height="2" as="geometry" />
        </mxCell>
        <mxCell id="5MrJC9Fv7mqZpnUCFobw-59" value="" style="edgeStyle=orthogonalEdgeStyle;rounded=1;orthogonalLoop=1;jettySize=auto;html=1;strokeColor=#23445D;" edge="1" parent="1" source="5MrJC9Fv7mqZpnUCFobw-60" target="5MrJC9Fv7mqZpnUCFobw-55">
          <mxGeometry relative="1" as="geometry" />
        </mxCell>
        <mxCell id="5MrJC9Fv7mqZpnUCFobw-60" value="3" style="html=1;overflow=block;blockSpacing=1;whiteSpace=wrap;fontSize=30.2;spacing=3.8;strokeOpacity=0;fillOpacity=0;rounded=1;absoluteArcSize=1;arcSize=9;fillColor=#182E3E;strokeWidth=2;lucidId=dxnqDWt0qBqq;strokeColor=#FFFFFF;fontColor=#FFFFFF;labelBackgroundColor=none;" vertex="1" parent="1">
          <mxGeometry x="684" y="984" width="180" height="50" as="geometry" />
        </mxCell>
        <mxCell id="5MrJC9Fv7mqZpnUCFobw-61" value="200" style="html=1;overflow=block;blockSpacing=1;whiteSpace=wrap;fontSize=21.8;spacing=3.8;strokeOpacity=0;fillOpacity=0;rounded=1;absoluteArcSize=1;arcSize=9;fillColor=#182E3E;strokeWidth=2.3;lucidId=dxnqRvoz57E_;strokeColor=#FFFFFF;fontColor=#FFFFFF;labelBackgroundColor=none;" vertex="1" parent="1">
          <mxGeometry x="684" y="1089" width="180" height="45" as="geometry" />
        </mxCell>
        <mxCell id="5MrJC9Fv7mqZpnUCFobw-62" value="400" style="html=1;overflow=block;blockSpacing=1;whiteSpace=wrap;fontSize=23.5;spacing=3.8;strokeOpacity=0;fillOpacity=0;rounded=1;absoluteArcSize=1;arcSize=9;fillColor=#182E3E;strokeWidth=2;lucidId=dxnqy.PDSBqt;strokeColor=#FFFFFF;fontColor=#FFFFFF;labelBackgroundColor=none;" vertex="1" parent="1">
          <mxGeometry x="789" y="988" width="180" height="45" as="geometry" />
        </mxCell>
        <mxCell id="5MrJC9Fv7mqZpnUCFobw-63" value="" style="html=1;overflow=block;blockSpacing=1;whiteSpace=wrap;fontSize=13;spacing=9;strokeColor=#FFFFFF;strokeOpacity=100;rounded=1;absoluteArcSize=1;arcSize=9;fillColor=#182E3E;strokeWidth=2;lucidId=dxnqz9eYnEAL;fontColor=#FFFFFF;labelBackgroundColor=none;" vertex="1" parent="1">
          <mxGeometry x="997" y="947" width="212" height="131" as="geometry" />
        </mxCell>
        <mxCell id="5MrJC9Fv7mqZpnUCFobw-64" value="" style="html=1;overflow=block;blockSpacing=1;whiteSpace=wrap;fontSize=13;spacing=0;strokeColor=#FFFFFF;strokeOpacity=100;rounded=1;absoluteArcSize=1;arcSize=9;rotation=-270;fillColor=#182E3E;strokeWidth=2;lucidId=dxnqtMmQlzqm;fontColor=#FFFFFF;labelBackgroundColor=none;" vertex="1" parent="1">
          <mxGeometry x="1033" y="1013" width="128" height="2" as="geometry" />
        </mxCell>
        <mxCell id="5MrJC9Fv7mqZpnUCFobw-65" value="4" style="html=1;overflow=block;blockSpacing=1;whiteSpace=wrap;fontSize=30.2;spacing=3.8;strokeOpacity=0;fillOpacity=0;rounded=1;absoluteArcSize=1;arcSize=9;fillColor=#182E3E;strokeWidth=2;lucidId=dxnql30kOyMY;strokeColor=#FFFFFF;fontColor=#FFFFFF;labelBackgroundColor=none;" vertex="1" parent="1">
          <mxGeometry x="954" y="987" width="180" height="50" as="geometry" />
        </mxCell>
        <mxCell id="5MrJC9Fv7mqZpnUCFobw-66" value="400" style="html=1;overflow=block;blockSpacing=1;whiteSpace=wrap;fontSize=21.8;spacing=3.8;strokeOpacity=0;fillOpacity=0;rounded=1;absoluteArcSize=1;arcSize=9;fillColor=#182E3E;strokeWidth=2.3;lucidId=dxnqcGsJbv1Z;strokeColor=#FFFFFF;fontColor=#FFFFFF;labelBackgroundColor=none;" vertex="1" parent="1">
          <mxGeometry x="969" y="1093" width="180" height="45" as="geometry" />
        </mxCell>
        <mxCell id="5MrJC9Fv7mqZpnUCFobw-67" value="350" style="html=1;overflow=block;blockSpacing=1;whiteSpace=wrap;fontSize=23.5;spacing=3.8;strokeOpacity=0;fillOpacity=0;rounded=1;absoluteArcSize=1;arcSize=9;fillColor=#182E3E;strokeWidth=2;lucidId=dxnqhTkLd1vg;strokeColor=#FFFFFF;fontColor=#FFFFFF;labelBackgroundColor=none;" vertex="1" parent="1">
          <mxGeometry x="1059" y="991" width="180" height="45" as="geometry" />
        </mxCell>
        <mxCell id="5MrJC9Fv7mqZpnUCFobw-68" value="" style="html=1;jettySize=18;whiteSpace=wrap;fontSize=13;strokeColor=#f08c00;strokeWidth=2;rounded=1;arcSize=12;edgeStyle=orthogonalEdgeStyle;startArrow=none;exitX=1.006;exitY=0.5;exitPerimeter=0;entryX=-0.005;entryY=0.475;entryPerimeter=0;lucidId=dxnq_gCFvqC8;labelBackgroundColor=none;fontColor=default;align=center;verticalAlign=middle;fontFamily=Helvetica;endArrow=classic;" edge="1" parent="1" source="5MrJC9Fv7mqZpnUCFobw-57" target="5MrJC9Fv7mqZpnUCFobw-63">
          <mxGeometry width="100" height="100" relative="1" as="geometry">
            <Array as="points" />
          </mxGeometry>
        </mxCell>
        <mxCell id="5MrJC9Fv7mqZpnUCFobw-69" value="" style="html=1;jettySize=18;whiteSpace=wrap;fontSize=13;strokeColor=#f08c00;strokeWidth=2;rounded=1;arcSize=12;edgeStyle=orthogonalEdgeStyle;startArrow=none;exitX=1.005;exitY=0.5;exitPerimeter=0;entryX=-0.006;entryY=0.475;entryPerimeter=0;lucidId=BxnqJ0oVtIos;labelBackgroundColor=none;fontColor=default;align=center;verticalAlign=middle;fontFamily=Helvetica;endArrow=classic;" edge="1" parent="1" source="5MrJC9Fv7mqZpnUCFobw-50" target="5MrJC9Fv7mqZpnUCFobw-57">
          <mxGeometry width="100" height="100" relative="1" as="geometry">
            <Array as="points" />
          </mxGeometry>
        </mxCell>
        <mxCell id="5MrJC9Fv7mqZpnUCFobw-70" value="" style="html=1;overflow=block;blockSpacing=1;whiteSpace=wrap;fontSize=13;spacing=9;strokeColor=#FFFFFF;strokeOpacity=100;rounded=1;absoluteArcSize=1;arcSize=9;fillColor=#182E3E;strokeWidth=2;lucidId=Oynqr56HJ-Z1;fontColor=#FFFFFF;labelBackgroundColor=none;" vertex="1" parent="1">
          <mxGeometry x="1284" y="947" width="210" height="131" as="geometry" />
        </mxCell>
        <mxCell id="5MrJC9Fv7mqZpnUCFobw-71" value="" style="html=1;overflow=block;blockSpacing=1;whiteSpace=wrap;fontSize=13;spacing=0;strokeColor=#FFFFFF;strokeOpacity=100;rounded=1;absoluteArcSize=1;arcSize=9;rotation=-270;fillColor=#182E3E;strokeWidth=2;lucidId=OynqC47-i75M;fontColor=#FFFFFF;labelBackgroundColor=none;" vertex="1" parent="1">
          <mxGeometry x="1318" y="1013" width="128" height="2" as="geometry" />
        </mxCell>
        <mxCell id="5MrJC9Fv7mqZpnUCFobw-72" value="5" style="html=1;overflow=block;blockSpacing=1;whiteSpace=wrap;fontSize=30.2;spacing=3.8;strokeOpacity=0;fillOpacity=0;rounded=1;absoluteArcSize=1;arcSize=9;fillColor=#182E3E;strokeWidth=2;lucidId=OynqTcgPSJFJ;strokeColor=#FFFFFF;fontColor=#FFFFFF;labelBackgroundColor=none;" vertex="1" parent="1">
          <mxGeometry x="1239" y="987" width="180" height="50" as="geometry" />
        </mxCell>
        <mxCell id="5MrJC9Fv7mqZpnUCFobw-73" value="350" style="html=1;overflow=block;blockSpacing=1;whiteSpace=wrap;fontSize=21.8;spacing=3.8;strokeOpacity=0;fillOpacity=0;rounded=1;absoluteArcSize=1;arcSize=9;fillColor=#182E3E;strokeWidth=2.3;lucidId=OynqnMEhD2bo;strokeColor=#FFFFFF;fontColor=#FFFFFF;labelBackgroundColor=none;" vertex="1" parent="1">
          <mxGeometry x="1254" y="1093" width="180" height="45" as="geometry" />
        </mxCell>
        <mxCell id="5MrJC9Fv7mqZpnUCFobw-74" value="NULL" style="html=1;overflow=block;blockSpacing=1;whiteSpace=wrap;fontSize=23.5;spacing=3.8;strokeOpacity=0;fillOpacity=0;rounded=1;absoluteArcSize=1;arcSize=9;fillColor=#182E3E;strokeWidth=2;lucidId=OynqJs_0Q_ax;strokeColor=#FFFFFF;fontColor=#FFFFFF;labelBackgroundColor=none;" vertex="1" parent="1">
          <mxGeometry x="1409" y="991" width="49" height="45" as="geometry" />
        </mxCell>
        <mxCell id="5MrJC9Fv7mqZpnUCFobw-75" value="" style="html=1;jettySize=18;whiteSpace=wrap;fontSize=13;strokeColor=#f08c00;strokeWidth=2;rounded=1;arcSize=12;edgeStyle=orthogonalEdgeStyle;startArrow=none;entryX=-0.005;entryY=0.475;entryPerimeter=0;lucidId=Oynq9Rinfg8f;labelBackgroundColor=none;fontColor=default;align=center;verticalAlign=middle;fontFamily=Helvetica;endArrow=classic;" edge="1" parent="1" target="5MrJC9Fv7mqZpnUCFobw-70">
          <mxGeometry width="100" height="100" relative="1" as="geometry">
            <Array as="points" />
            <mxPoint x="1210" y="1009" as="sourcePoint" />
          </mxGeometry>
        </mxCell>
        <mxCell id="5MrJC9Fv7mqZpnUCFobw-76" value="" style="edgeStyle=orthogonalEdgeStyle;rounded=1;orthogonalLoop=1;jettySize=auto;html=1;strokeColor=#f08c00;fontColor=default;fillColor=#FAE5C7;strokeWidth=2;align=center;verticalAlign=middle;arcSize=12;fontFamily=Helvetica;fontSize=13;labelBackgroundColor=none;startArrow=none;endArrow=classic;" edge="1" parent="1" source="5MrJC9Fv7mqZpnUCFobw-77">
          <mxGeometry relative="1" as="geometry">
            <mxPoint x="242" y="1069" as="targetPoint" />
          </mxGeometry>
        </mxCell>
        <mxCell id="5MrJC9Fv7mqZpnUCFobw-77" value="" style="html=1;overflow=block;blockSpacing=1;whiteSpace=wrap;fontSize=13;spacing=9;strokeColor=#FFFFFF;strokeOpacity=100;rounded=1;absoluteArcSize=1;arcSize=9;fillColor=#182E3E;strokeWidth=2;lucidId=Oynqr56HJ-Z1;fontColor=#FFFFFF;labelBackgroundColor=none;" vertex="1" parent="1">
          <mxGeometry x="136.5" y="1178" width="210" height="131" as="geometry" />
        </mxCell>
        <mxCell id="5MrJC9Fv7mqZpnUCFobw-78" value="&lt;sup&gt;&lt;font color=&quot;#ffffff&quot; style=&quot;font-size: 21px;&quot;&gt;100&lt;/font&gt;&lt;/sup&gt;" style="text;html=1;align=center;verticalAlign=middle;whiteSpace=wrap;rounded=0;fontFamily=Helvetica;fontSize=13;fontColor=default;labelBackgroundColor=none;" vertex="1" parent="1">
          <mxGeometry x="209" y="1231" width="60" height="30" as="geometry" />
        </mxCell>
        <mxCell id="5MrJC9Fv7mqZpnUCFobw-79" value="Head&lt;div&gt;&lt;br&gt;&lt;/div&gt;" style="html=1;overflow=block;blockSpacing=1;whiteSpace=wrap;fontSize=30.2;spacing=3.8;strokeOpacity=0;fillOpacity=0;rounded=1;absoluteArcSize=1;arcSize=9;fillColor=#182E3E;strokeWidth=2;lucidId=Sqnq5ORAUDPB;strokeColor=#FFFFFF;fontColor=#FFFFFF;labelBackgroundColor=none;" vertex="1" parent="1">
          <mxGeometry x="149" y="1325" width="180" height="50" as="geometry" />
        </mxCell>
        <mxCell id="5MrJC9Fv7mqZpnUCFobw-80" value="Step - 2(Create a temp node)" style="html=1;overflow=block;blockSpacing=1;whiteSpace=wrap;fontSize=30.2;spacing=3.8;strokeOpacity=0;fillOpacity=0;rounded=1;absoluteArcSize=1;arcSize=9;fillColor=#182E3E;strokeWidth=2;lucidId=Sqnq5ORAUDPB;strokeColor=#FFFFFF;fontColor=#FFFFFF;labelBackgroundColor=none;" vertex="1" parent="1">
          <mxGeometry x="123" y="849" width="532" height="50" as="geometry" />
        </mxCell>
        <mxCell id="5MrJC9Fv7mqZpnUCFobw-124" value="" style="edgeStyle=orthogonalEdgeStyle;rounded=1;orthogonalLoop=1;jettySize=auto;html=1;strokeColor=#f08c00;strokeWidth=2;align=center;verticalAlign=middle;arcSize=12;fontFamily=Helvetica;fontSize=13;fontColor=default;labelBackgroundColor=none;startArrow=none;endArrow=classic;fillColor=#FAE5C7;entryX=0.5;entryY=1;entryDx=0;entryDy=0;" edge="1" parent="1" source="5MrJC9Fv7mqZpnUCFobw-81" target="5MrJC9Fv7mqZpnUCFobw-84">
          <mxGeometry relative="1" as="geometry">
            <mxPoint x="505" y="1800.5" as="targetPoint" />
          </mxGeometry>
        </mxCell>
        <mxCell id="5MrJC9Fv7mqZpnUCFobw-81" value="" style="html=1;overflow=block;blockSpacing=1;whiteSpace=wrap;fontSize=13;spacing=9;strokeColor=#FFFFFF;strokeOpacity=100;rounded=1;absoluteArcSize=1;arcSize=9;fillColor=#182E3E;strokeWidth=2;lucidId=Oynqr56HJ-Z1;fontColor=#FFFFFF;labelBackgroundColor=none;" vertex="1" parent="1">
          <mxGeometry x="400" y="1880.5" width="210" height="131" as="geometry" />
        </mxCell>
        <mxCell id="5MrJC9Fv7mqZpnUCFobw-82" value="&lt;sup&gt;&lt;font color=&quot;#ffffff&quot; style=&quot;font-size: 21px;&quot;&gt;300&lt;/font&gt;&lt;/sup&gt;" style="text;html=1;align=center;verticalAlign=middle;whiteSpace=wrap;rounded=0;fontFamily=Helvetica;fontSize=13;fontColor=default;labelBackgroundColor=none;" vertex="1" parent="1">
          <mxGeometry x="482.5" y="1931" width="60" height="30" as="geometry" />
        </mxCell>
        <mxCell id="5MrJC9Fv7mqZpnUCFobw-83" value="&lt;div&gt;temp&lt;/div&gt;" style="html=1;overflow=block;blockSpacing=1;whiteSpace=wrap;fontSize=30.2;spacing=3.8;strokeOpacity=0;fillOpacity=0;rounded=1;absoluteArcSize=1;arcSize=9;fillColor=#182E3E;strokeWidth=2;lucidId=Sqnq5ORAUDPB;strokeColor=#FFFFFF;fontColor=#FFFFFF;labelBackgroundColor=none;" vertex="1" parent="1">
          <mxGeometry x="422.5" y="2025" width="180" height="50" as="geometry" />
        </mxCell>
        <mxCell id="5MrJC9Fv7mqZpnUCFobw-84" value="" style="html=1;overflow=block;blockSpacing=1;whiteSpace=wrap;fontSize=13;spacing=9;strokeColor=#FFFFFF;strokeOpacity=100;rounded=1;absoluteArcSize=1;arcSize=9;fillColor=#182E3E;strokeWidth=2;lucidId=lonqCEzBW5gV;fontColor=#FFFFFF;labelBackgroundColor=none;" vertex="1" parent="1">
          <mxGeometry x="121.5" y="1553" width="195" height="131" as="geometry" />
        </mxCell>
        <mxCell id="5MrJC9Fv7mqZpnUCFobw-85" value="" style="html=1;overflow=block;blockSpacing=1;whiteSpace=wrap;fontSize=13;spacing=0;strokeColor=#FFFFFF;strokeOpacity=100;rounded=1;absoluteArcSize=1;arcSize=9;rotation=-270;fillColor=#182E3E;strokeWidth=2;lucidId=.pnqXwC.xLCP;fontColor=#FFFFFF;labelBackgroundColor=none;" vertex="1" parent="1">
          <mxGeometry x="155.5" y="1619" width="128" height="2" as="geometry" />
        </mxCell>
        <mxCell id="5MrJC9Fv7mqZpnUCFobw-86" value="1" style="html=1;overflow=block;blockSpacing=1;whiteSpace=wrap;fontSize=30.2;spacing=3.8;strokeOpacity=0;fillOpacity=0;rounded=1;absoluteArcSize=1;arcSize=9;fillColor=#182E3E;strokeWidth=2;lucidId=Sqnq5ORAUDPB;strokeColor=#FFFFFF;fontColor=#FFFFFF;labelBackgroundColor=none;" vertex="1" parent="1">
          <mxGeometry x="76.5" y="1594" width="180" height="50" as="geometry" />
        </mxCell>
        <mxCell id="5MrJC9Fv7mqZpnUCFobw-87" value="100" style="html=1;overflow=block;blockSpacing=1;whiteSpace=wrap;fontSize=21.8;spacing=3.8;strokeOpacity=0;fillOpacity=0;rounded=1;absoluteArcSize=1;arcSize=9;fillColor=#182E3E;strokeWidth=2.3;lucidId=isnqI1MwnaG3;strokeColor=#FFFFFF;fontColor=#FFFFFF;labelBackgroundColor=none;" vertex="1" parent="1">
          <mxGeometry x="76.5" y="1699" width="180" height="45" as="geometry" />
        </mxCell>
        <mxCell id="5MrJC9Fv7mqZpnUCFobw-88" value="300" style="html=1;overflow=block;blockSpacing=1;whiteSpace=wrap;fontSize=23.5;spacing=3.8;strokeOpacity=0;fillOpacity=0;rounded=1;absoluteArcSize=1;arcSize=9;fillColor=#182E3E;strokeWidth=2;lucidId=NtnqVGGFf.KU;strokeColor=#FFFFFF;fontColor=#FFFFFF;labelBackgroundColor=none;" vertex="1" parent="1">
          <mxGeometry x="181.5" y="1599" width="180" height="45" as="geometry" />
        </mxCell>
        <mxCell id="5MrJC9Fv7mqZpnUCFobw-89" value="" style="html=1;overflow=block;blockSpacing=1;whiteSpace=wrap;fontSize=13;spacing=9;strokeColor=#FFFFFF;strokeOpacity=100;rounded=1;absoluteArcSize=1;arcSize=9;fillColor=#182E3E;strokeWidth=2;lucidId=funqcVY1rt8x;fontColor=#FFFFFF;labelBackgroundColor=none;" vertex="1" parent="1">
          <mxGeometry x="391.5" y="1557" width="210" height="131" as="geometry" />
        </mxCell>
        <mxCell id="5MrJC9Fv7mqZpnUCFobw-90" value="" style="html=1;overflow=block;blockSpacing=1;whiteSpace=wrap;fontSize=13;spacing=0;strokeColor=#FFFFFF;strokeOpacity=100;rounded=1;absoluteArcSize=1;arcSize=9;rotation=-270;fillColor=#182E3E;strokeWidth=2;lucidId=funqXEhAqQCg;fontColor=#FFFFFF;labelBackgroundColor=none;" vertex="1" parent="1">
          <mxGeometry x="425.5" y="1622" width="128" height="2" as="geometry" />
        </mxCell>
        <mxCell id="5MrJC9Fv7mqZpnUCFobw-91" value="2" style="html=1;overflow=block;blockSpacing=1;whiteSpace=wrap;fontSize=30.2;spacing=3.8;strokeOpacity=0;fillOpacity=0;rounded=1;absoluteArcSize=1;arcSize=9;fillColor=#182E3E;strokeWidth=2;lucidId=funq-_-mwvkc;strokeColor=#FFFFFF;fontColor=#FFFFFF;labelBackgroundColor=none;" vertex="1" parent="1">
          <mxGeometry x="346.5" y="1597" width="180" height="50" as="geometry" />
        </mxCell>
        <mxCell id="5MrJC9Fv7mqZpnUCFobw-92" value="300" style="html=1;overflow=block;blockSpacing=1;whiteSpace=wrap;fontSize=21.8;spacing=3.8;strokeOpacity=0;fillOpacity=0;rounded=1;absoluteArcSize=1;arcSize=9;fillColor=#182E3E;strokeWidth=2.3;lucidId=funqwZg_H~hS;strokeColor=#FFFFFF;fontColor=#FFFFFF;labelBackgroundColor=none;" vertex="1" parent="1">
          <mxGeometry x="361.5" y="1702" width="180" height="45" as="geometry" />
        </mxCell>
        <mxCell id="5MrJC9Fv7mqZpnUCFobw-93" value="" style="edgeStyle=orthogonalEdgeStyle;rounded=0;orthogonalLoop=1;jettySize=auto;html=1;strokeColor=#A8201A;fontColor=#143642;fillColor=#FAE5C7;" edge="1" parent="1" source="5MrJC9Fv7mqZpnUCFobw-94" target="5MrJC9Fv7mqZpnUCFobw-99">
          <mxGeometry relative="1" as="geometry" />
        </mxCell>
        <mxCell id="5MrJC9Fv7mqZpnUCFobw-94" value="200" style="html=1;overflow=block;blockSpacing=1;whiteSpace=wrap;fontSize=23.5;spacing=3.8;strokeOpacity=0;fillOpacity=0;rounded=1;absoluteArcSize=1;arcSize=9;fillColor=#182E3E;strokeWidth=2;lucidId=funqLgOdOeUQ;strokeColor=#FFFFFF;fontColor=#FFFFFF;labelBackgroundColor=none;" vertex="1" parent="1">
          <mxGeometry x="451.5" y="1601" width="180" height="45" as="geometry" />
        </mxCell>
        <mxCell id="5MrJC9Fv7mqZpnUCFobw-95" value="" style="html=1;jettySize=18;whiteSpace=wrap;fontSize=13;strokeColor=#f08c00;strokeWidth=2;rounded=1;arcSize=12;edgeStyle=orthogonalEdgeStyle;startArrow=none;exitX=1.006;exitY=0.5;exitPerimeter=0;entryX=-0.005;entryY=0.475;entryPerimeter=0;lucidId=zunqpD2wfYcL;labelBackgroundColor=none;fontColor=default;align=center;verticalAlign=middle;fontFamily=Helvetica;endArrow=classic;" edge="1" parent="1" source="5MrJC9Fv7mqZpnUCFobw-84" target="5MrJC9Fv7mqZpnUCFobw-89">
          <mxGeometry width="100" height="100" relative="1" as="geometry">
            <Array as="points" />
          </mxGeometry>
        </mxCell>
        <mxCell id="5MrJC9Fv7mqZpnUCFobw-96" value="" style="html=1;overflow=block;blockSpacing=1;whiteSpace=wrap;fontSize=13;spacing=9;strokeColor=#FFFFFF;strokeOpacity=100;rounded=1;absoluteArcSize=1;arcSize=9;fillColor=#182E3E;strokeWidth=2;lucidId=dxnqlpMRUIvW;fontColor=#FFFFFF;labelBackgroundColor=none;" vertex="1" parent="1">
          <mxGeometry x="706.5" y="1560" width="195" height="131" as="geometry" />
        </mxCell>
        <mxCell id="5MrJC9Fv7mqZpnUCFobw-97" value="" style="html=1;overflow=block;blockSpacing=1;whiteSpace=wrap;fontSize=13;spacing=0;strokeColor=#FFFFFF;strokeOpacity=100;rounded=1;absoluteArcSize=1;arcSize=9;rotation=-270;fillColor=#182E3E;strokeWidth=2;lucidId=dxnqFODmpNJx;fontColor=#FFFFFF;labelBackgroundColor=none;" vertex="1" parent="1">
          <mxGeometry x="740.5" y="1626" width="128" height="2" as="geometry" />
        </mxCell>
        <mxCell id="5MrJC9Fv7mqZpnUCFobw-98" value="" style="edgeStyle=orthogonalEdgeStyle;rounded=1;orthogonalLoop=1;jettySize=auto;html=1;strokeColor=#23445D;" edge="1" parent="1" source="5MrJC9Fv7mqZpnUCFobw-99" target="5MrJC9Fv7mqZpnUCFobw-94">
          <mxGeometry relative="1" as="geometry" />
        </mxCell>
        <mxCell id="5MrJC9Fv7mqZpnUCFobw-99" value="3" style="html=1;overflow=block;blockSpacing=1;whiteSpace=wrap;fontSize=30.2;spacing=3.8;strokeOpacity=0;fillOpacity=0;rounded=1;absoluteArcSize=1;arcSize=9;fillColor=#182E3E;strokeWidth=2;lucidId=dxnqDWt0qBqq;strokeColor=#FFFFFF;fontColor=#FFFFFF;labelBackgroundColor=none;" vertex="1" parent="1">
          <mxGeometry x="661.5" y="1600" width="180" height="50" as="geometry" />
        </mxCell>
        <mxCell id="5MrJC9Fv7mqZpnUCFobw-100" value="200" style="html=1;overflow=block;blockSpacing=1;whiteSpace=wrap;fontSize=21.8;spacing=3.8;strokeOpacity=0;fillOpacity=0;rounded=1;absoluteArcSize=1;arcSize=9;fillColor=#182E3E;strokeWidth=2.3;lucidId=dxnqRvoz57E_;strokeColor=#FFFFFF;fontColor=#FFFFFF;labelBackgroundColor=none;" vertex="1" parent="1">
          <mxGeometry x="661.5" y="1705" width="180" height="45" as="geometry" />
        </mxCell>
        <mxCell id="5MrJC9Fv7mqZpnUCFobw-101" value="400" style="html=1;overflow=block;blockSpacing=1;whiteSpace=wrap;fontSize=23.5;spacing=3.8;strokeOpacity=0;fillOpacity=0;rounded=1;absoluteArcSize=1;arcSize=9;fillColor=#182E3E;strokeWidth=2;lucidId=dxnqy.PDSBqt;strokeColor=#FFFFFF;fontColor=#FFFFFF;labelBackgroundColor=none;" vertex="1" parent="1">
          <mxGeometry x="766.5" y="1604" width="180" height="45" as="geometry" />
        </mxCell>
        <mxCell id="5MrJC9Fv7mqZpnUCFobw-102" value="" style="html=1;overflow=block;blockSpacing=1;whiteSpace=wrap;fontSize=13;spacing=9;strokeColor=#FFFFFF;strokeOpacity=100;rounded=1;absoluteArcSize=1;arcSize=9;fillColor=#182E3E;strokeWidth=2;lucidId=dxnqz9eYnEAL;fontColor=#FFFFFF;labelBackgroundColor=none;" vertex="1" parent="1">
          <mxGeometry x="974.5" y="1563" width="212" height="131" as="geometry" />
        </mxCell>
        <mxCell id="5MrJC9Fv7mqZpnUCFobw-103" value="" style="html=1;overflow=block;blockSpacing=1;whiteSpace=wrap;fontSize=13;spacing=0;strokeColor=#FFFFFF;strokeOpacity=100;rounded=1;absoluteArcSize=1;arcSize=9;rotation=-270;fillColor=#182E3E;strokeWidth=2;lucidId=dxnqtMmQlzqm;fontColor=#FFFFFF;labelBackgroundColor=none;" vertex="1" parent="1">
          <mxGeometry x="1010.5" y="1629" width="128" height="2" as="geometry" />
        </mxCell>
        <mxCell id="5MrJC9Fv7mqZpnUCFobw-104" value="4" style="html=1;overflow=block;blockSpacing=1;whiteSpace=wrap;fontSize=30.2;spacing=3.8;strokeOpacity=0;fillOpacity=0;rounded=1;absoluteArcSize=1;arcSize=9;fillColor=#182E3E;strokeWidth=2;lucidId=dxnql30kOyMY;strokeColor=#FFFFFF;fontColor=#FFFFFF;labelBackgroundColor=none;" vertex="1" parent="1">
          <mxGeometry x="931.5" y="1603" width="180" height="50" as="geometry" />
        </mxCell>
        <mxCell id="5MrJC9Fv7mqZpnUCFobw-105" value="400" style="html=1;overflow=block;blockSpacing=1;whiteSpace=wrap;fontSize=21.8;spacing=3.8;strokeOpacity=0;fillOpacity=0;rounded=1;absoluteArcSize=1;arcSize=9;fillColor=#182E3E;strokeWidth=2.3;lucidId=dxnqcGsJbv1Z;strokeColor=#FFFFFF;fontColor=#FFFFFF;labelBackgroundColor=none;" vertex="1" parent="1">
          <mxGeometry x="946.5" y="1709" width="180" height="45" as="geometry" />
        </mxCell>
        <mxCell id="5MrJC9Fv7mqZpnUCFobw-106" value="350" style="html=1;overflow=block;blockSpacing=1;whiteSpace=wrap;fontSize=23.5;spacing=3.8;strokeOpacity=0;fillOpacity=0;rounded=1;absoluteArcSize=1;arcSize=9;fillColor=#182E3E;strokeWidth=2;lucidId=dxnqhTkLd1vg;strokeColor=#FFFFFF;fontColor=#FFFFFF;labelBackgroundColor=none;" vertex="1" parent="1">
          <mxGeometry x="1036.5" y="1607" width="180" height="45" as="geometry" />
        </mxCell>
        <mxCell id="5MrJC9Fv7mqZpnUCFobw-107" value="" style="html=1;jettySize=18;whiteSpace=wrap;fontSize=13;strokeColor=#f08c00;strokeWidth=2;rounded=1;arcSize=12;edgeStyle=orthogonalEdgeStyle;startArrow=none;exitX=1.006;exitY=0.5;exitPerimeter=0;entryX=-0.005;entryY=0.475;entryPerimeter=0;lucidId=dxnq_gCFvqC8;labelBackgroundColor=none;fontColor=default;align=center;verticalAlign=middle;fontFamily=Helvetica;endArrow=classic;" edge="1" parent="1" source="5MrJC9Fv7mqZpnUCFobw-96" target="5MrJC9Fv7mqZpnUCFobw-102">
          <mxGeometry width="100" height="100" relative="1" as="geometry">
            <Array as="points" />
          </mxGeometry>
        </mxCell>
        <mxCell id="5MrJC9Fv7mqZpnUCFobw-108" value="" style="html=1;jettySize=18;whiteSpace=wrap;fontSize=13;strokeColor=#f08c00;strokeWidth=2;rounded=1;arcSize=12;edgeStyle=orthogonalEdgeStyle;startArrow=none;exitX=1.005;exitY=0.5;exitPerimeter=0;entryX=-0.006;entryY=0.475;entryPerimeter=0;lucidId=BxnqJ0oVtIos;labelBackgroundColor=none;fontColor=default;align=center;verticalAlign=middle;fontFamily=Helvetica;endArrow=classic;" edge="1" parent="1" source="5MrJC9Fv7mqZpnUCFobw-89" target="5MrJC9Fv7mqZpnUCFobw-96">
          <mxGeometry width="100" height="100" relative="1" as="geometry">
            <Array as="points" />
          </mxGeometry>
        </mxCell>
        <mxCell id="5MrJC9Fv7mqZpnUCFobw-109" value="" style="html=1;overflow=block;blockSpacing=1;whiteSpace=wrap;fontSize=13;spacing=9;strokeColor=#FFFFFF;strokeOpacity=100;rounded=1;absoluteArcSize=1;arcSize=9;fillColor=#182E3E;strokeWidth=2;lucidId=Oynqr56HJ-Z1;fontColor=#FFFFFF;labelBackgroundColor=none;" vertex="1" parent="1">
          <mxGeometry x="1261.5" y="1563" width="210" height="131" as="geometry" />
        </mxCell>
        <mxCell id="5MrJC9Fv7mqZpnUCFobw-110" value="" style="html=1;overflow=block;blockSpacing=1;whiteSpace=wrap;fontSize=13;spacing=0;strokeColor=#FFFFFF;strokeOpacity=100;rounded=1;absoluteArcSize=1;arcSize=9;rotation=-270;fillColor=#182E3E;strokeWidth=2;lucidId=OynqC47-i75M;fontColor=#FFFFFF;labelBackgroundColor=none;" vertex="1" parent="1">
          <mxGeometry x="1295.5" y="1629" width="128" height="2" as="geometry" />
        </mxCell>
        <mxCell id="5MrJC9Fv7mqZpnUCFobw-111" value="5" style="html=1;overflow=block;blockSpacing=1;whiteSpace=wrap;fontSize=30.2;spacing=3.8;strokeOpacity=0;fillOpacity=0;rounded=1;absoluteArcSize=1;arcSize=9;fillColor=#182E3E;strokeWidth=2;lucidId=OynqTcgPSJFJ;strokeColor=#FFFFFF;fontColor=#FFFFFF;labelBackgroundColor=none;" vertex="1" parent="1">
          <mxGeometry x="1216.5" y="1603" width="180" height="50" as="geometry" />
        </mxCell>
        <mxCell id="5MrJC9Fv7mqZpnUCFobw-112" value="350" style="html=1;overflow=block;blockSpacing=1;whiteSpace=wrap;fontSize=21.8;spacing=3.8;strokeOpacity=0;fillOpacity=0;rounded=1;absoluteArcSize=1;arcSize=9;fillColor=#182E3E;strokeWidth=2.3;lucidId=OynqnMEhD2bo;strokeColor=#FFFFFF;fontColor=#FFFFFF;labelBackgroundColor=none;" vertex="1" parent="1">
          <mxGeometry x="1231.5" y="1709" width="180" height="45" as="geometry" />
        </mxCell>
        <mxCell id="5MrJC9Fv7mqZpnUCFobw-113" value="NULL" style="html=1;overflow=block;blockSpacing=1;whiteSpace=wrap;fontSize=23.5;spacing=3.8;strokeOpacity=0;fillOpacity=0;rounded=1;absoluteArcSize=1;arcSize=9;fillColor=#182E3E;strokeWidth=2;lucidId=OynqJs_0Q_ax;strokeColor=#FFFFFF;fontColor=#FFFFFF;labelBackgroundColor=none;" vertex="1" parent="1">
          <mxGeometry x="1386.5" y="1607" width="49" height="45" as="geometry" />
        </mxCell>
        <mxCell id="5MrJC9Fv7mqZpnUCFobw-114" value="" style="html=1;jettySize=18;whiteSpace=wrap;fontSize=13;strokeColor=#f08c00;strokeWidth=2;rounded=1;arcSize=12;edgeStyle=orthogonalEdgeStyle;startArrow=none;entryX=-0.005;entryY=0.475;entryPerimeter=0;lucidId=Oynq9Rinfg8f;labelBackgroundColor=none;fontColor=default;align=center;verticalAlign=middle;fontFamily=Helvetica;endArrow=classic;" edge="1" parent="1" target="5MrJC9Fv7mqZpnUCFobw-109">
          <mxGeometry width="100" height="100" relative="1" as="geometry">
            <Array as="points" />
            <mxPoint x="1187.5" y="1625" as="sourcePoint" />
          </mxGeometry>
        </mxCell>
        <mxCell id="5MrJC9Fv7mqZpnUCFobw-116" value="" style="html=1;overflow=block;blockSpacing=1;whiteSpace=wrap;fontSize=13;spacing=9;strokeColor=#FFFFFF;strokeOpacity=100;rounded=1;absoluteArcSize=1;arcSize=9;fillColor=#182E3E;strokeWidth=2;lucidId=Oynqr56HJ-Z1;fontColor=#FFFFFF;labelBackgroundColor=none;" vertex="1" parent="1">
          <mxGeometry x="-9" y="1869" width="210" height="131" as="geometry" />
        </mxCell>
        <mxCell id="5MrJC9Fv7mqZpnUCFobw-117" value="&lt;sup&gt;&lt;font color=&quot;#ffffff&quot; style=&quot;font-size: 21px;&quot;&gt;100&lt;/font&gt;&lt;/sup&gt;" style="text;html=1;align=center;verticalAlign=middle;whiteSpace=wrap;rounded=0;fontFamily=Helvetica;fontSize=13;fontColor=default;labelBackgroundColor=none;" vertex="1" parent="1">
          <mxGeometry x="63.5" y="1922" width="60" height="30" as="geometry" />
        </mxCell>
        <mxCell id="5MrJC9Fv7mqZpnUCFobw-118" value="Head&lt;div&gt;&lt;br&gt;&lt;/div&gt;" style="html=1;overflow=block;blockSpacing=1;whiteSpace=wrap;fontSize=30.2;spacing=3.8;strokeOpacity=0;fillOpacity=0;rounded=1;absoluteArcSize=1;arcSize=9;fillColor=#182E3E;strokeWidth=2;lucidId=Sqnq5ORAUDPB;strokeColor=#FFFFFF;fontColor=#FFFFFF;labelBackgroundColor=none;" vertex="1" parent="1">
          <mxGeometry x="3.5" y="2016" width="180" height="50" as="geometry" />
        </mxCell>
        <mxCell id="5MrJC9Fv7mqZpnUCFobw-119" value="Step - 3(Connect the empty node in a header address)" style="html=1;overflow=block;blockSpacing=1;whiteSpace=wrap;fontSize=30.2;spacing=3.8;strokeOpacity=0;fillOpacity=0;rounded=1;absoluteArcSize=1;arcSize=9;fillColor=#182E3E;strokeWidth=2;lucidId=Sqnq5ORAUDPB;strokeColor=#FFFFFF;fontColor=#FFFFFF;labelBackgroundColor=none;" vertex="1" parent="1">
          <mxGeometry x="100.5" y="1465" width="900.5" height="50" as="geometry" />
        </mxCell>
      </root>
    </mxGraphModel>
  </diagram>
</mxfile>
